<mxfile host="app.diagrams.net" modified="2023-03-29T15:22:55.688Z" agent="Mozilla/5.0 (Macintosh; Intel Mac OS X 10_15_7) AppleWebKit/537.36 (KHTML, like Gecko) Chrome/111.0.0.0 Safari/537.36" etag="o-s_Pra3wnC04l8FB7g1" version="21.1.1" type="github">
  <diagram id="3228e29e-7158-1315-38df-8450db1d8a1d" name="Page-1">
    <mxGraphModel dx="799" dy="1099" grid="0" gridSize="10" guides="1" tooltips="1" connect="1" arrows="1" fold="1" page="1" pageScale="1" pageWidth="850" pageHeight="530" background="#EFF1F3" math="0" shadow="0">
      <root>
        <mxCell id="0" />
        <mxCell id="1" parent="0" />
        <mxCell id="Zxyhw3o_makbFYxT9f12-17" value="" style="rounded=1;whiteSpace=wrap;html=1;dashed=1;strokeWidth=5;fillColor=none;" parent="1" vertex="1">
          <mxGeometry x="134" y="290" width="569.5" height="223" as="geometry" />
        </mxCell>
        <mxCell id="Zxyhw3o_makbFYxT9f12-7" value="" style="rounded=1;whiteSpace=wrap;html=1;dashed=1;strokeWidth=5;fillColor=none;" parent="1" vertex="1">
          <mxGeometry x="134" y="17" width="568.5" height="260" as="geometry" />
        </mxCell>
        <mxCell id="Zxyhw3o_makbFYxT9f12-2" value="&lt;font style=&quot;font-size: 18px&quot;&gt;socket接口&lt;/font&gt;" style="rounded=1;whiteSpace=wrap;html=1;strokeColor=none;labelBackgroundColor=none;fillColor=#FDD276;" parent="1" vertex="1">
          <mxGeometry x="159.5" y="270" width="517" height="26" as="geometry" />
        </mxCell>
        <mxCell id="Zxyhw3o_makbFYxT9f12-11" value="&lt;font style=&quot;font-size: 24px&quot;&gt;用户态&lt;/font&gt;" style="text;html=1;strokeColor=none;fillColor=none;align=center;verticalAlign=middle;whiteSpace=wrap;rounded=0;dashed=1;" parent="1" vertex="1">
          <mxGeometry x="351.75" y="34" width="132.5" height="20" as="geometry" />
        </mxCell>
        <mxCell id="Zxyhw3o_makbFYxT9f12-12" value="&lt;font style=&quot;font-size: 24px&quot;&gt;内核态&lt;/font&gt;" style="text;html=1;strokeColor=none;align=center;verticalAlign=middle;whiteSpace=wrap;rounded=0;dashed=1;labelBackgroundColor=none;" parent="1" vertex="1">
          <mxGeometry x="367.75" y="316" width="102" height="20" as="geometry" />
        </mxCell>
        <mxCell id="Zxyhw3o_makbFYxT9f12-43" value="" style="endArrow=none;dashed=1;html=1;labelBackgroundColor=none;fontSize=18;fontColor=#9AC7BF;fillColor=#9AC7BF;startArrow=classic;startFill=1;strokeWidth=6;strokeColor=#808080;" parent="1" edge="1">
          <mxGeometry width="50" height="50" relative="1" as="geometry">
            <mxPoint x="287.5" y="390" as="sourcePoint" />
            <mxPoint x="287.5" y="218" as="targetPoint" />
          </mxGeometry>
        </mxCell>
        <mxCell id="Zxyhw3o_makbFYxT9f12-4" value="&lt;font face=&quot;open sans, clear sans, helvetica neue, helvetica, arial, sans-serif&quot; color=&quot;#333333&quot;&gt;&lt;span style=&quot;font-size: 18px;&quot;&gt;send&lt;/span&gt;&lt;/font&gt;" style="rounded=1;whiteSpace=wrap;html=1;strokeColor=none;fillColor=#9AC7BF;labelBackgroundColor=none;" parent="1" vertex="1">
          <mxGeometry x="218" y="260" width="86" height="36" as="geometry" />
        </mxCell>
        <mxCell id="Q3Be5SUDkI5A6VXG5GKD-15" value="" style="endArrow=classic;dashed=1;html=1;labelBackgroundColor=none;fontSize=18;fontColor=#9AC7BF;fillColor=#9AC7BF;startArrow=none;startFill=0;strokeWidth=6;strokeColor=#808080;endFill=1;" parent="1" edge="1">
          <mxGeometry width="50" height="50" relative="1" as="geometry">
            <mxPoint x="516.97" y="380" as="sourcePoint" />
            <mxPoint x="516.5" y="230.99999999999994" as="targetPoint" />
          </mxGeometry>
        </mxCell>
        <mxCell id="8Pch_gNzNQtC_OksFj8u-1" value="" style="shape=image;verticalLabelPosition=bottom;verticalAlign=top;imageAspect=0;image=data:image/svg+xml,PHN2ZyB4bWxuczp4bGluaz0iaHR0cDovL3d3dy53My5vcmcvMTk5OS94bGluayIgeG1sbnM9Imh0dHA6Ly93d3cudzMub3JnLzIwMDAvc3ZnIiBoZWlnaHQ9IjIwMCIgd2lkdGg9IjIwMCIgdmVyc2lvbj0iMS4xIiB2aWV3Qm94PSIwIDAgMTAyNCAxMDI0IiBjbGFzcz0iaWNvbiI+PGRlZnM+PHN0eWxlIHR5cGU9InRleHQvY3NzIj5AZm9udC1mYWNlIHsgZm9udC1mYW1pbHk6IGZlZWRiYWNrLWljb25mb250OyBzcmM6IHVybCgiLy9hdC5hbGljZG4uY29tL3QvZm9udF8xMDMxMTU4X3U2OXc4eWh4ZHUud29mZjI/dD0xNjMwMDMzNzU5OTQ0IikgZm9ybWF0KCJ3b2ZmMiIpLCB1cmwoIi8vYXQuYWxpY2RuLmNvbS90L2ZvbnRfMTAzMTE1OF91Njl3OHloeGR1LndvZmY/dD0xNjMwMDMzNzU5OTQ0IikgZm9ybWF0KCJ3b2ZmIiksIHVybCgiLy9hdC5hbGljZG4uY29tL3QvZm9udF8xMDMxMTU4X3U2OXc4eWh4ZHUudHRmP3Q9MTYzMDAzMzc1OTk0NCIpIGZvcm1hdCgidHJ1ZXR5cGUiKTsgfSYjeGE7PC9zdHlsZT48L2RlZnM+PHBhdGggZmlsbD0iIzRBOTE5QiIgZD0iTTAgNzI4djEzNmMwIDM1LjMgMjguNyA2NCA2NCA2NGg4OTZjMzUuMyAwIDY0LTI4LjcgNjQtNjRWNzI4YzAtNC40LTMuNi04LTgtOEg4Yy00LjQgMC04IDMuNi04IDh6IG03NzQgOTZjMCA0LjQtMy42IDgtOCA4SDQyNGMtNC40IDAtOC0zLjYtOC04di00OGMwLTQuNCAzLjYtOCA4LThoMzQyYzQuNCAwIDggMy42IDggOHY0OHogbTEyMiAwYzAgNC40LTMuNiA4LTggOGgtNDhjLTQuNCAwLTgtMy42LTgtOHYtNDhjMC00LjQgMy42LTggOC04aDQ4YzQuNCAwIDggMy42IDggOHY0OHpNMCA1MzZ2MTQ0YzAgNC40IDMuNiA4IDggOGgxMDA4YzQuNCAwIDgtMy42IDgtOFY1MzZjMC00LjQtMy42LTgtOC04SDhjLTQuNCAwLTggMy42LTggOHogbTc3NCA5NmMwIDQuNC0zLjYgOC04IDhINDI0Yy00LjQgMC04LTMuNi04LTh2LTQ4YzAtNC40IDMuNi04IDgtOGgzNDJjNC40IDAgOCAzLjYgOCA4djQ4eiBtMTIyIDBjMCA0LjQtMy42IDgtOCA4aC00OGMtNC40IDAtOC0zLjYtOC04di00OGMwLTQuNCAzLjYtOCA4LThoNDhjNC40IDAgOCAzLjYgOCA4djQ4ek0wIDM0NHYxNDRjMCA0LjQgMy42IDggOCA4aDEwMDhjNC40IDAgOC0zLjYgOC04VjM0NGMwLTQuNC0zLjYtOC04LThIOGMtNC40IDAtOCAzLjYtOCA4eiBtNzc0IDk2YzAgNC40LTMuNiA4LTggOEg0MjRjLTQuNCAwLTgtMy42LTgtOHYtNDhjMC00LjQgMy42LTggOC04aDM0MmM0LjQgMCA4IDMuNiA4IDh2NDh6IG0xMjIgMGMwIDQuNC0zLjYgOC04IDhoLTQ4Yy00LjQgMC04LTMuNi04LTh2LTQ4YzAtNC40IDMuNi04IDgtOGg0OGM0LjQgMCA4IDMuNiA4IDh2NDh6TTk2MCA5Nkg2NGMtMzUuMyAwLTY0IDI4LjctNjQgNjR2MTM2YzAgNC40IDMuNiA4IDggOGgxMDA4YzQuNCAwIDgtMy42IDgtOFYxNjBjMC0zNS4zLTI4LjctNjQtNjQtNjR6TTc3NCAyNDhjMCA0LjQtMy42IDgtOCA4SDQyNGMtNC40IDAtOC0zLjYtOC04di00OGMwLTQuNCAzLjYtOCA4LThoMzQyYzQuNCAwIDggMy42IDggOHY0OHogbTEyMiAwYzAgNC40LTMuNiA4LTggOGgtNDhjLTQuNCAwLTgtMy42LTgtOHYtNDhjMC00LjQgMy42LTggOC04aDQ4YzQuNCAwIDggMy42IDggOHY0OHoiLz48L3N2Zz4=" parent="1" vertex="1">
          <mxGeometry x="212" y="50" width="98" height="98" as="geometry" />
        </mxCell>
        <mxCell id="8Pch_gNzNQtC_OksFj8u-2" value="&lt;span style=&quot;font-size: 24px;&quot;&gt;&lt;font color=&quot;#808080&quot;&gt;A进程&lt;/font&gt;&lt;/span&gt;" style="text;html=1;strokeColor=none;fillColor=none;align=center;verticalAlign=middle;whiteSpace=wrap;rounded=0;dashed=1;" parent="1" vertex="1">
          <mxGeometry x="197.5" y="143" width="132.5" height="20" as="geometry" />
        </mxCell>
        <mxCell id="8Pch_gNzNQtC_OksFj8u-4" value="&lt;span style=&quot;font-size: 24px;&quot;&gt;&lt;font color=&quot;#808080&quot;&gt;B进程&lt;/font&gt;&lt;/span&gt;" style="text;html=1;strokeColor=none;fillColor=none;align=center;verticalAlign=middle;whiteSpace=wrap;rounded=0;dashed=1;" parent="1" vertex="1">
          <mxGeometry x="478" y="143" width="132.5" height="20" as="geometry" />
        </mxCell>
        <mxCell id="8Pch_gNzNQtC_OksFj8u-5" value="" style="shape=image;verticalLabelPosition=bottom;verticalAlign=top;imageAspect=0;aspect=fixed;image=data:image/svg+xml,PHN2ZyB4bWxuczp4bGluaz0iaHR0cDovL3d3dy53My5vcmcvMTk5OS94bGluayIgeG1sbnM9Imh0dHA6Ly93d3cudzMub3JnLzIwMDAvc3ZnIiBoZWlnaHQ9IjIwMCIgd2lkdGg9IjIwMCIgdmVyc2lvbj0iMS4xIiB2aWV3Qm94PSIwIDAgMTAyNCAxMDI0IiBjbGFzcz0iaWNvbiI+PHBhdGggZmlsbD0iIzVBNkVBQiIgZD0iTTAgNzI4djEzNmMwIDM1LjMgMjguNyA2NCA2NCA2NGg4OTZjMzUuMyAwIDY0LTI4LjcgNjQtNjRWNzI4YzAtNC40LTMuNi04LTgtOEg4Yy00LjQgMC04IDMuNi04IDh6IG03NzQgOTZjMCA0LjQtMy42IDgtOCA4SDQyNGMtNC40IDAtOC0zLjYtOC04di00OGMwLTQuNCAzLjYtOCA4LThoMzQyYzQuNCAwIDggMy42IDggOHY0OHogbTEyMiAwYzAgNC40LTMuNiA4LTggOGgtNDhjLTQuNCAwLTgtMy42LTgtOHYtNDhjMC00LjQgMy42LTggOC04aDQ4YzQuNCAwIDggMy42IDggOHY0OHpNMCA1MzZ2MTQ0YzAgNC40IDMuNiA4IDggOGgxMDA4YzQuNCAwIDgtMy42IDgtOFY1MzZjMC00LjQtMy42LTgtOC04SDhjLTQuNCAwLTggMy42LTggOHogbTc3NCA5NmMwIDQuNC0zLjYgOC04IDhINDI0Yy00LjQgMC04LTMuNi04LTh2LTQ4YzAtNC40IDMuNi04IDgtOGgzNDJjNC40IDAgOCAzLjYgOCA4djQ4eiBtMTIyIDBjMCA0LjQtMy42IDgtOCA4aC00OGMtNC40IDAtOC0zLjYtOC04di00OGMwLTQuNCAzLjYtOCA4LThoNDhjNC40IDAgOCAzLjYgOCA4djQ4ek0wIDM0NHYxNDRjMCA0LjQgMy42IDggOCA4aDEwMDhjNC40IDAgOC0zLjYgOC04VjM0NGMwLTQuNC0zLjYtOC04LThIOGMtNC40IDAtOCAzLjYtOCA4eiBtNzc0IDk2YzAgNC40LTMuNiA4LTggOEg0MjRjLTQuNCAwLTgtMy42LTgtOHYtNDhjMC00LjQgMy42LTggOC04aDM0MmM0LjQgMCA4IDMuNiA4IDh2NDh6IG0xMjIgMGMwIDQuNC0zLjYgOC04IDhoLTQ4Yy00LjQgMC04LTMuNi04LTh2LTQ4YzAtNC40IDMuNi04IDgtOGg0OGM0LjQgMCA4IDMuNiA4IDh2NDh6TTk2MCA5Nkg2NGMtMzUuMyAwLTY0IDI4LjctNjQgNjR2MTM2YzAgNC40IDMuNiA4IDggOGgxMDA4YzQuNCAwIDgtMy42IDgtOFYxNjBjMC0zNS4zLTI4LjctNjQtNjQtNjR6TTc3NCAyNDhjMCA0LjQtMy42IDgtOCA4SDQyNGMtNC40IDAtOC0zLjYtOC04di00OGMwLTQuNCAzLjYtOCA4LThoMzQyYzQuNCAwIDggMy42IDggOHY0OHogbTEyMiAwYzAgNC40LTMuNiA4LTggOGgtNDhjLTQuNCAwLTgtMy42LTgtOHYtNDhjMC00LjQgMy42LTggOC04aDQ4YzQuNCAwIDggMy42IDggOHY0OHoiLz48L3N2Zz4=" parent="1" vertex="1">
          <mxGeometry x="495.25" y="50" width="98" height="98" as="geometry" />
        </mxCell>
        <mxCell id="ZwhL4k09VyKGj1G_LQpu-5" value="&lt;font face=&quot;open sans, clear sans, helvetica neue, helvetica, arial, sans-serif&quot; color=&quot;#333333&quot;&gt;&lt;span style=&quot;font-size: 18px;&quot;&gt;recv&lt;/span&gt;&lt;/font&gt;" style="rounded=1;whiteSpace=wrap;html=1;strokeColor=none;fillColor=#9AC7BF;labelBackgroundColor=none;" parent="1" vertex="1">
          <mxGeometry x="501.25" y="260" width="86" height="36" as="geometry" />
        </mxCell>
        <mxCell id="vs9VKS1Gs_cTsC5QVMMd-6" style="edgeStyle=orthogonalEdgeStyle;rounded=1;orthogonalLoop=1;jettySize=auto;html=1;exitX=0.5;exitY=1;exitDx=0;exitDy=0;entryX=0;entryY=0.5;entryDx=0;entryDy=0;strokeColor=#808080;dashed=1;startArrow=classic;startFill=1;endArrow=none;endFill=0;" parent="1" source="vs9VKS1Gs_cTsC5QVMMd-1" target="vs9VKS1Gs_cTsC5QVMMd-4" edge="1">
          <mxGeometry relative="1" as="geometry">
            <Array as="points">
              <mxPoint x="255.5" y="444" />
            </Array>
          </mxGeometry>
        </mxCell>
        <mxCell id="oLqNCVqMZUZ0FzQDfJi1-1" style="edgeStyle=orthogonalEdgeStyle;rounded=0;orthogonalLoop=1;jettySize=auto;html=1;exitX=1;exitY=0.5;exitDx=0;exitDy=0;startArrow=classic;startFill=1;dashed=1;strokeColor=#808080;" edge="1" parent="1" source="vs9VKS1Gs_cTsC5QVMMd-1" target="vs9VKS1Gs_cTsC5QVMMd-16">
          <mxGeometry relative="1" as="geometry" />
        </mxCell>
        <mxCell id="vs9VKS1Gs_cTsC5QVMMd-1" value="&lt;span style=&quot;font-size: 18px;&quot;&gt;&lt;font color=&quot;#ffffff&quot;&gt;sock&lt;/font&gt;&lt;/span&gt;" style="rounded=1;whiteSpace=wrap;html=1;strokeColor=none;fillColor=#4A919B;" parent="1" vertex="1">
          <mxGeometry x="212" y="375" width="87.5" height="38" as="geometry" />
        </mxCell>
        <mxCell id="vs9VKS1Gs_cTsC5QVMMd-7" style="edgeStyle=orthogonalEdgeStyle;rounded=1;orthogonalLoop=1;jettySize=auto;html=1;exitX=0.5;exitY=1;exitDx=0;exitDy=0;entryX=1;entryY=0.5;entryDx=0;entryDy=0;dashed=1;endArrow=none;endFill=0;startArrow=classic;startFill=1;strokeColor=#808080;" parent="1" source="vs9VKS1Gs_cTsC5QVMMd-16" target="vs9VKS1Gs_cTsC5QVMMd-5" edge="1">
          <mxGeometry relative="1" as="geometry">
            <mxPoint x="549.5" y="413" as="sourcePoint" />
          </mxGeometry>
        </mxCell>
        <mxCell id="vs9VKS1Gs_cTsC5QVMMd-3" value="" style="shape=image;verticalLabelPosition=bottom;verticalAlign=top;imageAspect=0;aspect=fixed;image=data:image/svg+xml,PHN2ZyB4bWxuczp4bGluaz0iaHR0cDovL3d3dy53My5vcmcvMTk5OS94bGluayIgeG1sbnM9Imh0dHA6Ly93d3cudzMub3JnLzIwMDAvc3ZnIiBoZWlnaHQ9IjIwMCIgd2lkdGg9IjIwMCIgdmVyc2lvbj0iMS4xIiB2aWV3Qm94PSIwIDAgMTAyNCAxMDI0IiBjbGFzcz0iaWNvbiI+PHBhdGggZmlsbD0iIzRBOTE5QiIgZD0iTTI4OCAzMjBhMzIgMzIgMCAxIDEgMC02NGg0NDhhMzIgMzIgMCAwIDEgMCA2NEgyODh6IG0wIDIyNGEzMiAzMiAwIDAgMSAwLTY0aDQ0OGEzMiAzMiAwIDAgMSAwIDY0SDI4OHogbTAgMjI0YTMyIDMyIDAgMCAxIDAtNjRoMTI4YTMyIDMyIDAgMCAxIDAgNjRIMjg4eiIvPjxwYXRoIGZpbGw9IiM0QTkxOUIiIGQ9Ik04MDcuOTY4IDgwMi4yNGEzMiAzMiAwIDAgMSA0MS45ODQgNDguMzJsLTE1My44NTYgMTMzLjZhMzIgMzIgMCAwIDEtMjAuOTkyIDcuODRIMTk1LjA0QzE0MC4xNiA5OTIgOTYgOTQ2LjYyNCA5NiA4OTEuMDcyVjEzMi45MjhDOTYgNzcuMzc2IDE0MC4xNiAzMiAxOTUuMDQgMzJoNjMzLjkyQzg4My44NCAzMiA5MjggNzcuMzc2IDkyOCAxMzIuOTI4djU2NC4zMmEzMiAzMiAwIDEgMS02NCAwdi01NjQuMzJDODY0IDExMi4zMiA4NDguMDk2IDk2IDgyOC45NiA5NkgxOTUuMDRDMTc1LjkwNCA5NiAxNjAgMTEyLjMyIDE2MCAxMzIuOTI4djc1OC4xNDRDMTYwIDkxMS42OCAxNzUuOTA0IDkyOCAxOTUuMDQgOTI4aDQ2OC4wOTZsMTQ0LjgzMi0xMjUuNzZ6Ii8+PHBhdGggZmlsbD0iIzRBOTE5QiIgZD0iTTcwNCA5NTkuMTM2YTMyIDMyIDAgMSAxLTY0IDB2LTE4Ni4yNEM2NDAgNzE3LjQwOCA2ODQuMTYgNjcyIDczOS4wNCA2NzJoMTU3LjYzMmEzMiAzMiAwIDAgMSAwIDY0SDczOS4wNGMtMTkuMTM2IDAtMzUuMDQgMTYuMzItMzUuMDQgMzYuOTI4djE4Ni4yNHoiLz48L3N2Zz4=" parent="1" vertex="1">
          <mxGeometry x="235.5" y="312" width="51" height="51" as="geometry" />
        </mxCell>
        <mxCell id="vs9VKS1Gs_cTsC5QVMMd-4" value="&lt;span style=&quot;font-size: 18px;&quot;&gt;&lt;font color=&quot;#ffffff&quot;&gt;接收缓冲区&lt;/font&gt;&lt;/span&gt;" style="rounded=1;whiteSpace=wrap;html=1;strokeColor=none;fillColor=#4A919B;" parent="1" vertex="1">
          <mxGeometry x="275.5" y="425" width="106" height="38" as="geometry" />
        </mxCell>
        <mxCell id="vs9VKS1Gs_cTsC5QVMMd-5" value="&lt;span style=&quot;font-size: 18px;&quot;&gt;&lt;font color=&quot;#ffffff&quot;&gt;接收缓冲区&lt;/font&gt;&lt;/span&gt;" style="rounded=1;whiteSpace=wrap;html=1;strokeColor=none;fillColor=#535F80;" parent="1" vertex="1">
          <mxGeometry x="410.5" y="425" width="106" height="38" as="geometry" />
        </mxCell>
        <mxCell id="vs9VKS1Gs_cTsC5QVMMd-9" value="" style="shape=image;verticalLabelPosition=bottom;labelBackgroundColor=default;verticalAlign=top;aspect=fixed;imageAspect=0;image=data:image/png,iVBORw0KGgoAAAANSUhEUgAAASwAAAEsCAYAAAB5fY51AAAACXBIWXMAAAsTAAALEwEAmpwYAAAgAElEQVR4Xu2dC3hcVbXH9z4zSdoEWls+5WFERRCkXkQr4OvT6q20k4Ra5bZU5WFJ0rEtnUxCX0JtGmqxtJBMpi8mM6E+4AqpXqQ3mQRELOBVpNQK8mgBX7SKVWlpa5qmmTn7rhMqlmYymcd57H3mn+/L1/Scvdde+7f2rNnvxRh+QAAEQAAEQAAEQAAEQAAEQAAEQAAEQAAEQAAEQAAEQAAEQAAEQAAEQAAEQAAEQAAEQAAEQAAEQAAEQAAEQAAEQAAEQAAEQAAEQAAEQAAEQAAEQAAEQAAEQAAEQAAEQAAEQAAEQAAEQAAEQAAEQAAEQAAEQAAEQAAEQAAEQAAEQAAEQAAEQAAEQAAEQAAEQAAEQAAEQAAEQAAEQAAEQAAEQAAEQAAEQAAEQAAEQAAEQAAEQAAEQAAEQAAEQAAEQAAEQAAEQAAEQAAEQAAEQAAEQAAEQAAEQAAEQAAEQAAEQAAEQAAEQAAEQAAEQAAEQAAEQAAEQAAEQAAEQAAEQAAEQAAEQAAEQAAEQAAEQAAEQAAEQAAEQAAEQAAEQAAEQAAEQAAEQAAEQAAEQAAEQAAEQAAEQAAEQAAEQAAEQAAEQAAEQAAEQAAEQAAEQAAEQAAEQAAEQAAEQAAEQEB1Alz1CkB/uQhUtkQ/IDTWbGjFddbQVV/7glwaQhuVCcBhqWw9iXSf0hwb79FEI+NsPqnlOa5akgm2gRcPrOiaN++AROpCFUUJwGEpajhZ1J7U2OgtHV/uJ31uod/xqfQSjL2mCbG898Cf27Y1NSVSpcEzEMiEABxWJpSQJiWBynDbZBr4hYRgE1ImGPrwWc5FfVdgzsNDX+EJCIxMAA5rZEZIcRKBqtY7z0ty7+1ciGm5wBGcb9UT7MYHG2peziU/8hQuATiswrV91jWfHImMLTrKl3HG6yhzUdYC3pphgOa3QkIb/a3uwNWH8pSF7AVCAA6rQAydTzVndHR4el89NJsJsYom1d+Rj6wheQX7G+P85rIzx2zeMnNmcsh7PACBEwjAYaE5pCVQEYp9mnHRSokuTpsw/5c7meDBeLDmsfxFQYJbCcBhudWyedZrasum93g071pa4fuvPEVllV0wsUXoycU99XP/mFVGJC4IAnBYBWHmzCs5acOGU0YnipdSw1hIuUoyz2lqyn5ylLf3eY+t3jZ//j9NlQxhShOAw1LafOYp39jYqD05rvxqztlqknqmeZJzl0RO6y80wb/0kv177mlqatJzl4ScbiEAh+UWS+ZRj6qW9o/rmh4iEZfmIcbKrE8Kzuq6A7VPWFkIZMtPAA5LfhtZpqEvHC3XBFtNPZmvWlaIiYKpsd6jc7aUHNdeE8VClEIE4LAUMpZZqlZFIqWi37NQCLGEZJaaJdcmOUc457fxkuTtnX7/EZvKRDGSEIDDksQQtqghBK8MR6+ineZraNPmu2wp07pCXqEjQYu762o6aB8XdRLxUwgE4LAKwcpUx8rW6ET6gLfSxs9PuqnKNCn/c8ZEsKuudoeb6oW6pCYAh5Wai2ueVmzYfAZLJG6lCn2Nft1qb5qTF5uFt+jm+PzZf3WN8VCRIQTc2oCHVLTQHvjC4RKNjQrS7vFlNF46pUDqf5hGh6t0djTUHQj0F0idC6qacFhuMzfNU1WFo9N1xm+nqp3jtuplWJ/fa0ws7AzU/hjzWxkSUyQZHJYihspEzamh6EUaF7Sfin82k/TuTyN+ptP5xJ5g7TPur2th1BAOywV29oXvejvXEyupN1FL1dFcUCUzq2DskG8T3LO8O3D9380UDFn2E4DDsp+5aSXOaOwo7h13iO5QH7xLfaxpgt0oSLCDXGMr/lqib9jh9w+4sYqFUCc4LEWtPLU1WkFdqRZS//2KVsEptXdTl6uhp6427pQCKDd3AnBYubNzJOcJYbSmOqKAewrtQRgy9YwJh6WIzYYJo6WI9tKqiTBk0pomtWJwWKm5SPM0kzBa0iirqCIIQ6aO4eCwJLZVDmG0JK6NEqohDJnkZoLDktBA+YbRcr5K/Fdv6CAuc16X7DVAGLLsmdmVAw7LLtIZlGNyGK0MSjQ5CWd7SOKS+IKaew3JgzdDMH4b/Xm2ySXZIQ5hyOygnGUZcFhZArMiuaVhtKxQeKjMXmpI3y5NHm7e0tDQd+LrGc3No3s9Y4J0OPkmJc80IgzZUGs7+AQOy0H4RtE2htGyoqaDtyQkdLHswXr/q+kKmBaKnp7U+Eq6NLCa0qm4Gx9hyNIZ2KZ3cFg2gT65GKfCaJ2sR67/J0+1jc4sNnQHanZmI+ON847sDsozOZt8sqRFGDJnLQGHZTN/ScJo5VxriqrzMl0EuDAeqNma800IdKPE1HDMR90sw3FdkLMyzmVEGDKH2MNh2QRexjBaWVb9dbpb65ayA2M2bGmaeSzLvCmTT4xEik4/qs2hua0maoinpUwk8UOEIbPfOHBYNjBXIIxWOgpJuhRvEz8mmjoX+v+RLmGu76a3bH7bgCexjHpuAZJRlKscB/MhDJlN8OGwLAStWhitk1FQ44gznS3sqq994eR3VvzfF468jwsPbYMQV1oh32qZxAthyCyGDIdlAWDFw2jR1BR7TmcaTahXP2QBnhFFHl85baaEE0dMLF8ChCGz0CYqLi9biCNP0UYYrda2WXq/touW75tImmox/+iCOzG397W9FzvlrAwLxIM1j12yfy9FoebX0n//nKdV7M5eatheP6q94AtFr2LUJuxWwM3lAaZJ1lU8jBZNoovQsVHi1of9/oMmITFFjNFbTR7VbqSGupQEqvYFQPcqIgyZKQ3huBA4rDxpqh5GixrAD1lSW9LVUP37PFFYmn3auvazErr+LSrka/SrWrtFGDKTWodqhjep2vmLcUEYrR00V1XfFah9PH8a9knwhWMfpt5gM8V6nmRfqaaVhDBkeaKEw8oWoOJhtIy9QxSm/huXHth7d1NTkxGgQb0fskFFODaNHO7ttBXiXPUqwBCGLEejwWFlAU7xMFrGoeQ1iWMlax9adG1vFtWWNulgEI7xr8+lEWIjKTlOWkWHVQxhyIZFM8wLOKxhwJz4WPkwWpx9T0skbupsmKvailsG1mFs8PpoD1tOQ0WKIMS8GWWSJxHCkGVhCzisNLBUD6NlrFAJjdfHF1Q/laaarnlVsb7t/ULX1nIhpilXKYQhy8hkcFjDYFI8jNYfaFlqcfeCmh/lfEB5GC4qPPati36O64I2nvIPqaDvSToiDFkao8FhnQRH8TBah+mGz2/1jfGEt82efTSN3V3/yrgU8Z9/PXQd9bZWUWXPULDCCEOWwmhwWMehKB5GS6cd1dFESXL5Q3Pn/i2FnQv2kXGdT1mieDGtji4iCKMUA4EwZCcZrOAdlgvCaP2EafqN8QX+3yr2YbRV3cvvuOtdXm/yVir0alsLNqEwhCH7N8SCdliKh9HazTm/sWtBdbwQ56ly9QNTQ22XeLjWTDeHfipXGQ7mK/gwZAXpsBQPo7Wf9k02/m10MrLD7x9w8MOjbtEE0LcudiXtll9DlXivahUp5DBkBeWwFA+jlaB9Rut4UWJl17x5B1T7kMmo7+DxKlG6QDD9m7SiOEZGHdPoVJBhyArCYbkgjNYDGksu6qz7+ktpGjBe5UhgcGOw0FfQF4KfRHhyFONMtgILQ+Z6h6V2GC3xNG38bOheUPuIM5+GwiqVHNeFmkiupUnuCgVrXhBhyFzrsBQPo7WP5lduLj1r7He2zJyZVPDDo7TKvnD75RrTm+lg9QTVKuL2MGSuc1iKh9HqpxsI7vD0aau3Lqk+rNqHxU36GttdysaXX09OayXdvvUOxerm2jBkrnFYqofRoh3q93IPWxq/oeZPin04XK2uL3z3GC76vkGVrKffEpUq68YwZK5xWBWt0V9RY6J7wJX7eULTtYbO+upfKqd5ASlsTDFoHu9qukvsKgWr/WS8rvYyBfUeorJqV3EMqcAJD9RyVpztId2XxBfU3IuNn+nMKse7nvq5fyRNZlGMyVZdEy20oqiSA1Drs5HG5IiakwaORa96qVu7rCxx+Px4oPYHcFYWUbZIrNETjgeqP86Z+DIV8YpFxUDsMATc1MMaporSPB4MRJDQxbIH6/2vSqMVFMmeAIXC7mLs3hnNzQ/0esYEya430XzRKdkLQo5sCcBhZUssh/TkqbbRTuoG6lHtzCE7skhKYEtDg3Ht9LenhaJ3JTW+kuIRVtP/MWqx0F5wWBbCpS0KL9Oy+EK6SG8rhn4WgnZY9NZg7T5SYQ7d+b9eo20p9Pdkh1VybfH4NrDGtK8zwRtKXxs7gVZnHoCzsgaybFJ7grXPxAM1l9Ml7ZWk2y7Z9HODPuhhmWvFJE1vbOLHRFPnQv8/zBUNaUoQoAbQw1h8YiTyk9OPanNobquJFllOU0J3BZRED8tkIwmdbhMvTeI4jclcVRNnXP1DvesNJbr3XOP0AumPq4BMMCIclgkQTxDhoWMcAX2g6CUK9Ok3bokwVzykqUbgx/WzXx8oSqyhXtZPVNNdRn3hsCywyuAQQIg7e189+NTgbRH4KUgCNCwsqgxHg95+74uK3gAhnd3gsKw1ycWMi0fp2NB9VaHI2dYWBekyEagIRT9Pc1hP0ypxC/W6x8qkm8q6YNLdHuvN1Ll2BTmu28qSh9cc379jT8koxVYClc3t5whv8g46czjd1oILpDD0sOwz9GgqakWv59RdlaHYDBoyuubguX0I5S3p8rXfK6Ph/0rh0Z+nLS1wVhaZCg7LIrBpxJ4tuOigIAiP0EbDi9KkwysVCNAXT2Vr2yxvcf8uGv4vI5WVuoJGBcQn6giH5ZDF6EbRSbQremdlKLrxi+u/i306Dtkhn2IrWtouptXgR+kusx+QnPJ8ZCFvZgQwh5UZJ6tSaTQwnNufPDbLF4ot7zuw585tTU0UHQc/MhMwvmCOJY6tJNsZQSvwpW+jsQDbRthpihpHG6TXlY4v3+lbF/1cmnR45SAB49pkWjiZT18wLxlfNHBW9hsDDst+5ulK/CDX2U9pSfxHV6yLvjddQryzl0BVS3RS6bjyX1Op6+l3nL2lo7R/EcCQUMa2wNmXkjqrpFWntYmB4tUPLbq2V0Y1C0GnivWxd4ukvpYONM8ohPrKXkf0sOS1UImx6mSsPlWEo1/GNgh7DUWX842uDMeWs6R4gTMOZ2Uv/mFLg8MaFo00L8ppE+J/V7TGHq9qiXxEGq3cqghtU6gItV1J++VeoAv5mqiaxv45/EhCAA5LEkOMqAZnn9Q17Sma9I1evmmTanHyRqyeDAkqW2MfpC+Gh+n+sh+SPu+WQSfo8FYCmMNSq0UYu+Nr6DDtDJrfato3OrneuMZErSrIp23lxo3j6IaNJoqaPI/O/eGGDflM9KZG6GFJbJxhVTMO03LRTIdrn6kMtU0ZNh1epCVgXP9T2RqdY1wHRN8ECygxnFVaYs6/hMNy3gb5aHCB4LyHholbpzTHzs1HUKHlnRqKfIqu/9lO175EcCOoOtbHkFAdW6XT9AqPR0yh3fItRf181dYl1YfTJS7kd1XNm96pe7xriMFXCpmDqnVHD0tVyw3Vu5h2yy9JjNJ3+0LRaxsbG2HbExhN2rx5FHG5iZzVbjiroY1HlSdo1KpYKnM9z6Q7xL+7ffy7flEVjrkmRHnm1T8ppXGbQqhtWumhxHPEZRW9LctZFjI6TgAOy3ETWKWAuEwX4le0mri5YsPmM6wqRWa5VesiF9A1Pt00z/cA6XmOzLpCt8wIYA4rM07qpuLiayyRuJJ2y68se21s65ammcfUrUxmmk+ORMYWH/Us13URoAl1tPHMsCmRCj0sJcyUt5Kn0m75Nb3jDz1Lx02MIJ+u/DHm7Xzh2PXFfdqLjIkGqiSclcssDYflMoOmr444j46bdNIwMT411H5++rRqvfWFox/bPr78CS5EO23+xEkAtcyXsbZwWBmjou9szqdR8j9kkUXOpFz4NK4/S8dQ7jCGT3IqmZlWU1oiZ/pao9+hG1x/STkuySwXUqlKAA4rC8t1B2r+l6LeTKAsxqHY/iyyypiUhkuiwRg+0TXN1aptg5jR2FFM83KLvJr2Is1TXScj4Ax0GqCh+toM0iHJcQJwWFk2BSNEF4UgXyG4bjiuziyzy5echk90e2aMhlNPUjCFT8in4FCNfOvafL3jD/7WmJejneqnDE2hxJNOjSUnxIO1i5XQVhIlMSmZoyG6A/7fUdYraJL3Cpo3aaW/Vb8hdCIFU/g/Olt3D08mlnQ2zP1zjmgsy1bVeud5utBamM5VXjjYxRivj9fV9FgGysWC0cPK07guGyZSp4V91dgNbuwKN3aH54nHlOzTbms/lY4drdaZ5zm6+kVNZyXYQdq4Wr9vlH4RnFXuzQIOK3d2b+Z03TCRdoMbu8KN3eG+lth0x247HdylHr3aOG5kHDsi4EUmmMtuERStnrUJzXNeV6A2hOuA8sNv3K/kih+6sYDahbU/NHeVES8XDRP/BfRhwT113YHrn7eW8L+lV6xr/6gQephW/z5uV5kWlPM4rSwTt5qd6WTL1HbT6SnDO/SwLLCC24aJhGgyF8lnKJpPq3HZnQXI3hRp3KZKH+AY0/UnlXVWnO2hbtWseKDmMyM5KytZulE2HJZFVnXhMNFDGzIDxmV3FO3Yb1x+Zya6iZFIUWU4GqTbVGmXOqum34x6s2bqYIKsoySjSSvRL+gO1t5H822W9/pN0FkpEXBYFpvLWE2koeQVbtl0OnjZnRB30uV3T9GO+U+bgY96bp+n21Ofpl5JC7kpNTeycnafJvTzjS0vnX7/ETO4QMZQAtjWMJSJJU+MYSKFjnqYorEYk8dL6bfEkoLsE3oxXdP8KA3fOuiDuqgz6H8l26Irm9vPEd7kHbQ0OT3bvBKl/w0dgaijlb/HJNLJtaqgh2WjaV04TDTozdS5toscV6MRyy8TnJev/V4Z9c5WCo/+PH3YVXVW/6Depr/szLEfjQfhrDKxuxlp4LDMoJilDLcNE6n6hqNaQb3HXZWh2Ixht0EY2xRa22YZwWGNILGUR8VeZoKGrqFi3XteV11t25aZM5NZmh/J8yAAh5UHvHyzunA18WzBRQddmvfI1FD0ohP5VLS0XUyT9Y/Sbvof0PPyfNk5kZ+OMD3IdXYRTajX/7h+9utO6FDoZWIOy+EWYAwTSYUVvnDk+1xoIfq7ymGV8i6e1sYm0cbTnbTpMyK8IsQTPEgfdj8JVvILkurystBFfXegtgsrf3k3j7wEKNmA8qqxpJldOEzUyEnNZUm+e/BfNZ3VYVq1XKyzvg/Gg3M64ayc//DAYTlvg7do4MJhomSEM1ZnM/N63x8P1K7tDgRUv0oo40rLnhBDQgkt5MZhooSYh1PpCQreEegJztk+XAI8d44AHJZz7Ecs2YVX2IxYZ6cS0Jb0v2iCLemqq7kHQz+nrDByuRgSjszI8RQYJlpqgn6aVL+1z3vs/K5g7d1wVpayzls4elh5I7RHAIaJFnAW7H+4ri3qaqj+vQXSIdICAnBYFkC1UiSGiabQfVZnPNgTrPmpKdIgxDYCGBLahtrcgjBMzInnAcp1w5H9ez/cUwdnlRNBhzOhh+WwAfIpHsPEjOnplHJTiae48f4brnst41xIKB0BOCzpTJK9QhgmpmEm2CPMowfjC/y/TZMKrxQhgCGhIobKRE0ME99C6Q8aE1+ia18mw1ll0nrUSAOHpYadMtbSpVfYZFx/SniEblO4+cgY74WddXPuxzaFbNDJnxZDQvltlJOGhThMpPuppI2pmJMRkWkIAfSwhiBx14OCGCYK9hRn4pN0P9XVMgaAdVeLcrY2cFjO8reldBcPE/cRwOsvObD3sq66Ob+wBSYKcZQAhoSO4re3cBcNEwcYEy2Cl67qDlx9KG4vRpTmIAH0sByE71TRig8TOzWWnBCvm7PEcFZOMUS5zhBAD8sZ7o6XquCm010UqrCetin0OA4PCjhGAD0sx9DLUbD0N50KdpBuU6jfN0q/CM5KjjbjpBZwWE7Sl6hsCYeJtJ2KtQnNc15XoDa0w++neSv8FDoBDAkLvQWcUH+JhomPU6TsOnKiO2EeEDiRABwW2sMQAo6tJnK2R+hsUXddTQd2qA8xCx4QAQwJ0QyGJfDmMJEuuhs2kUkvaPh3v1aiX0Ax/+6DszIJqgvFwGG50KhmVmlwmMiZ5Tcd0LGaZzr9/iNm6g5Z7iMAh+U+m6JGIOBaAnBYrjUtKgYC7iMAh+U+m6JGIOBaAnBYrjUtKgYC7iMAh+U+m6JGIOBaAnBYrjUtKgYC7iMAh+U+m6JGIOBaAtjp7lrTomKyE/CFwyVMlNbR3V6yqyqNfuhhZWGKilDksiySIykIpCYgBK8MtU3jYvRzdLXzbakT4WkqAnBYqagM94xrT1S0tn1v2rr2s4ZLgucgkI6AL3zXhRXhaA8d7n6A0r0vXVq8G0oAQ8KhTEZ4wq9J6PqXKlpjq46M8bRsmz376AgZ8BoEWOXGjePEQHEjE8kb6CJCD5DkRgA9rNy4ldG8w62lhxLP+Vpi0xl18XMTg1xuJzCjo8NDvfKv6wNFL1GbofkqBmeVh9HhsPKAR1nP4Zq4vyIce2hKc9uE/EQht9sI+MJtn+l99fUd1KPaRN9op7mtfk7UB0NCc6hP9nj405Xhtk2JhNb4YEPNfnPEQoqKBCrWx94tkvpaLvgMFfWXWWc4LPOs46GR4Q2aR3zZF45+s++1vdFtTU0J88RDkuwEqiKR0mQfX8KSYjFnfJTs+qqoH4aEJlvN6PpzwTaWji/fUdna/lmTxUOcjASMbQqtbbP0o9puzvlyUhHOyiI7wWFZBJbEXiSY/gitJv5wasum91hXDCQ7SaCqJfKRynD7Y4LxH5Ae5U7qUghlY0houZXFlZrmraoIxdYmBopXP7To2l7Li0QBlhO4fNOmd3iPeVfpjFXT6h9WiS0n/kYB6GHZA7qEcbHMW9y/mxzXV7ANwh7oVpQyo7GjmLYpNHiPeWibAquhXzgrK0APIxMOaxgwFj1+Jzmue2gbxM8rW6MTLSoDYi0i4FvX5usdf/AZ8lF30O8Yi4qB2DQEMCRMA8fCV5+g467bK1qjd3kFu3lrsHafhWVBdJ4EKta3vZ8lWDPTeWWeopA9TwKu6WHRXILRmHbnycPO7MZQojrB2UuVrbGFxlDDzsJR1sgEJkciY32tbWtZkj9LocdUdVa7hSYqRq6tGilc47B66mrj+0bp/8E5q6fbOg6qgX9Qy1MFE2t7xx96tjIcU/VDoRDukVVtbGzUfOHY9cV92ou0n2oh5SgaOZd0KV6nxYCg8ZnoXjCnWzrtclTIVUPCHX7/AHEI0Yn4e7hI3kJ/z6FfRZyyOE8I1kmT8t2aJ9nQucC/K0ebIlseBGg/1Se2Mx7mQkxUdDpdp32AEZ7Ql3cu9P8jDxRSZnWVw/oX4e7A9X+nv+dODUU3kbdqoYb3OSnpp1KKC5+ua5+n/VvhY6OStzzs96vUW0xVIyWe0emEcvqg30Zzi19RQuFUSgr2CPPowa4FfssD36Yq3o5nrnRY/wLXE6x9hrYQTPaF2r9Ah5RpZYedYwdUE8ogu4iG4qPaNeS4bio7c8zmLTNnJk2QCxEnEZjR3Dy613vKjTSN8A16VaoooN8JnS/sDlY/QHNtrr6+VJHhUh7NiAzYXV/zY8H7LqTdyEtopvufeUizO+vbyXFFe189uH1qKPIpuwt3dXl0nKYi1HZlr2fM87Tvc6Wizuqw0aapbU8w2rjbnZXRHgtu01vFhs1n8MTAKjL0bNXqTzrfm0xoix+68fo9djoT2n6xgsprtLjMpnhdrVGO5T80VXCRxkWImr+qZz2NXtRdzOtdFp8/+6+WA5OoAFcPCVNxPm7gatq4uZEabIhW6JTpudD937O83uQXaDVxdWni0NotDQ19qeqIZ6kJfHH9d0/rTw7QYoz4OtleydEFrVr+nOvJus56/69T19LdT5U0mhkm6aqr3dEVqP40rczNInmvmCHTJhmjhRBNvZ5Td1WGYjNwzGdk6pMaG72+UOyG/uQx49bPeZRDxXZPbVRcZbTZQnVWhqVVNNzILTTTFMb8VrD2vrLk4Quoj21cC3Ik06wSpDtbcNFBx3x+VhVu/5AE+kipAl2qOLnstPLfkKnXkYLjpFQyvVJHjLZptNF43ZyOQpinSoej4IaEqWAcH1qtpKXtzbTG8m1Kc3WqdJI++4wu9F/TBHJUS4hlbtx7kwt3XzjyPho+3U5z69NzyS9Jnru1ZGJpZ8PcP0uij+NqwGGdYILuQO1e+u815Lg2kONqpb8vddxCmSmg0TevXy/iV9FNAiv2jRIbj2+izSy3i1JN2rDhlNJE0U208ncjVUvR4078V9R7DlJ7fMJFpjGlKoU9JBwGodFQLtm/9+M0MXstdcf/MkwyGR+/zVhIOP2o9rQv3H65jApapZNxnIb2rF1Tmih+kRgYe6qUc1ZGW6Mvymsu2b/nE3BWqVsKelipubCmpiY6T82+T9/Y95cOlCyha2GMM2WqXH37AS70B+k83FY9wW6koBgvD1NNVzyuCscu3S4E9YjFxxSt0FHqEd7eV9R/27b58//ZpWgl7FAbDmsEykYDoiTfpGuO27nmWUPzIspEQqHzcNM8HjaVVshaivr5qq1Lqg+PUF2lXk9piZypadq3dSGuU0rxtyrbwTx8cfyGmj8pXAfbVIfDyhB1T/3cP1LSmXQ4+dPU26JNh+zDGWZ1OlkxrZAtSYwS19E1Nks/un/P94/3Hp3WK+fyfeFwicZGBalXsoyGUafkLMjZjDvpZpG6rkDt486qoVbpmMPK0l7xYM1jZWeOvYTmGmro/NnfsszuZPIzaJPsd7aPL/9lRShymZOK5Fy2EZ0m1DaNi9HP0Z+rlXRW1GaMtmO0ITir7FsCeljZM2PHDyK3+8J3b+F63zI64DIu6x8AAAYoSURBVBQkMarcmXQpbfJ+glYTv+/VPEu3LqhWYlGBrgy6kIejLYJzVRcT6Ooj0SK00lXxwNWHcmh2yEIE4LDyaAbdbzS8xVOaY20ej7idRH0hD3E2Z+XXJHT9S7SyturIGE/Lttmzj9qsQEbFVW7cOE4MFDcykbyBVv88GWWSL9EDySRf+GBDrasXP+zAjiGhCZSNVTg6uDtdZ3wyiXvWBJF2iSijb/1bSw8lnvO1xKbLdMxnRkeHh3qBX9cHiozjNHUEREVn9azRJoy24faVWrsaLByWiaR76mp+emT/3g/T6tx8ml95zUTRVos6h+4Lu5+O+Tw0pbltgtWFjSTfF277TO+rr++gHtUmuk7ktJHSy/besD1FKpxntAWjTcimn8r6FNz1MnYZ682hDBM0lFGqd5CkVcVNiYTWSL2C/QYvu66XoeX9zSKpr1Vp68hJ7SlBTnYDLzrW1DVv3gG72lohlQOHZbG1K1uiHxAahYhibKrFRZkqfrCHyNk3+17bGy0dX76MhDeaWsBQYcZQ+lz6VWVz7ltrIDju4h9qU9OfwGGZjjS1wKmt0QoafxuO6/zUKSR9KthvyXEZmxqrJNXQabWMMFr1bopM4zTQdOXDYaWjY/K7iZFI0Rn92nyhsxXkBMaaLB7i7CVghNEq6IPm9uJ+ozQ4LAeo056it6sXhswBUHIW6eowWnIi/7dWcFgOWmjwbnHVwpA5yMvxoo+H0Yq7OIyW44xHUAAOawRAlr+mMyYKhiGzHItkBRRMGC3JuA9RB/uwhiCx+YHaYchshmV7cQUXRst2wlkWiB5WlsCsTq5yGDKr2dgon3Z1FGYYLRsZ51QUHFZO2KzPRGHIJhq3h6oUhsx6KtaXUOhhtKwnnF8JcFj58bM2tzG/1RqbSfcmraGCzra2sIKX/gptU1gUD9RuKfTINDK3BMxhyWwdtcOQyUz2RN0QRksVS5Ge6GEpZCyK5lOuYBgymQkjjJbM1kmhGxxWCiiyPyLH9THFwpBJhhRhtCQzSMbqYEiYMSp5EiochsxRiLT0hzBajlog/8LRw8qfoaMSBgOHqheGzG5mg2G0jhwPo2V34SjPPAJwWOaxdFQShSF7j2phyGwChjBaNoG2oxg4LDso21iGgmHIrKKDMFpWkXVQLhyWg/CtKtq4D/3IXw5+jeZsbqV14HdYVY6Uco0wWozdVHrW2O8cj24kpZpQKjcCcFi5cVMiF4UhG6NgGLJc2b4RRouXrjoezShXOcgnMQE4LImNY5ZqFIbsXPXCkGVV++NhtGoQRisrbOolhsNSz2Y5azy1NfafGhMhEvDBnIXIldEIoxVEZBq5jGKlNtiHZSVdyWQrHIbsLSQRRkuyhmWjOuhh2QhbpqIUDUOGMFoyNSIHdIHDcgC6TEUqE4YMYbRkajaO6QKH5Rh6uQqWOAwZwmjJ1VQc1QYOy1H8chUuWRgyhNGSq3lIoQ0clhRmkEsJh8OQIYyWXM1BKm3gsKQyh1zK2B6GDGG05GoAEmoDhyWhUaRSyZ4wZAijJZXR5VUG+7DktY0cmlkbhgxhtOSwsjJaoIeljKnkUNSkMGQIoyWHOZXTAg5LOZPJoXCuYcgQRksO+6mqBRyWqpaTQe/swpAhjJYMNlNcB8xhKW5AR9XPLAwZwmg5aiR3FY4elrvs6WhtUoQhQxgtRy2CwkEABEYkYIQhM35HTIgEIAACIAACIAACIAACIAACIAACIAACIAACIAACIAACIAACIAACIAACIAACIAACIAACIAACIAACIAACIAACIAACIAACIAACIAACIAACIAACIAACIAACIAACIAACIAACIAACIAACIAACIAACIAACIAACIAACIAACIAACIAACIAACIAACIAACIAACIAACIAACIAACIAACIAACIAACIAACIAACIAACIAACIAACIAACIAACIAACIAACIAACIAACIAACIAACIAACIAACIAACIAACIAACIAACIAACIAACIAACIAACIAACIAACIAACIAACIAACIAACIAACIAACIAACIAACIAACIAACIAACIAACIAACIAACIAACIAACIAACIAACIAACIAACIAACIAACChL4fwV2ljre7jg8AAAAAElFTkSuQmCC;" parent="1" vertex="1">
          <mxGeometry x="408.5" y="455" width="55.25" height="55.25" as="geometry" />
        </mxCell>
        <mxCell id="vs9VKS1Gs_cTsC5QVMMd-10" value="&lt;font style=&quot;font-size: 15px;&quot; color=&quot;#808080&quot;&gt;1.执行send&lt;/font&gt;" style="text;html=1;strokeColor=none;fillColor=none;align=center;verticalAlign=middle;whiteSpace=wrap;rounded=0;" parent="1" vertex="1">
          <mxGeometry x="173.5" y="226" width="107" height="30" as="geometry" />
        </mxCell>
        <mxCell id="vs9VKS1Gs_cTsC5QVMMd-11" value="&lt;font style=&quot;font-size: 15px;&quot; color=&quot;#808080&quot;&gt;2.将数据塞到sock的接收缓冲区&lt;/font&gt;" style="text;html=1;strokeColor=none;fillColor=none;align=center;verticalAlign=middle;whiteSpace=wrap;rounded=0;" parent="1" vertex="1">
          <mxGeometry x="460" y="471" width="139.5" height="30" as="geometry" />
        </mxCell>
        <mxCell id="vs9VKS1Gs_cTsC5QVMMd-12" value="" style="shape=image;verticalLabelPosition=bottom;labelBackgroundColor=default;verticalAlign=top;aspect=fixed;imageAspect=0;image=data:image/png,iVBORw0KGgoAAAANSUhEUgAAASwAAAEsCAYAAAB5fY51AAAACXBIWXMAAAsTAAALEwEAmpwYAAAgAElEQVR4Xu2dC3hcVbXH9z4zSdoEWls+5WFERRCkXkQr4OvT6q20k4Ra5bZU5WFJ0rEtnUxCX0JtGmqxtJBMpi8mM6E+4AqpXqQ3mQRELOBVpNQK8mgBX7SKVWlpa5qmmTn7rhMqlmYymcd57H3mn+/L1/Scvdde+7f2rNnvxRh+QAAEQAAEQAAEQAAEQAAEQAAEQAAEQAAEQAAEQAAEQAAEQAAEQAAEQAAEQAAEQAAEQAAEQAAEQAAEQAAEQAAEQAAEQAAEQAAEQAAEQAAEQAAEQAAEQAAEQAAEQAAEQAAEQAAEQAAEQAAEQAAEQAAEQAAEQAAEQAAEQAAEQAAEQAAEQAAEQAAEQAAEQAAEQAAEQAAEQAAEQAAEQAAEQAAEQAAEQAAEQAAEQAAEQAAEQAAEQAAEQAAEQAAEQAAEQAAEQAAEQAAEQAAEQAAEQAAEQAAEQAAEQAAEQAAEQAAEQAAEQAAEQAAEQAAEQAAEQAAEQAAEQAAEQAAEQAAEQAAEQAAEQAAEQAAEQAAEQAAEQAAEQAAEQAAEQAAEQAAEQAAEQAAEQAAEQAAEQAAEQAAEQAAEQAAEQAAEQAAEQAAEQAAEQAAEQAAEQAAEQAAEQAAEQAAEQAAEQAAEQEB1Alz1CkB/uQhUtkQ/IDTWbGjFddbQVV/7glwaQhuVCcBhqWw9iXSf0hwb79FEI+NsPqnlOa5akgm2gRcPrOiaN++AROpCFUUJwGEpajhZ1J7U2OgtHV/uJ31uod/xqfQSjL2mCbG898Cf27Y1NSVSpcEzEMiEABxWJpSQJiWBynDbZBr4hYRgE1ImGPrwWc5FfVdgzsNDX+EJCIxMAA5rZEZIcRKBqtY7z0ty7+1ciGm5wBGcb9UT7MYHG2peziU/8hQuATiswrV91jWfHImMLTrKl3HG6yhzUdYC3pphgOa3QkIb/a3uwNWH8pSF7AVCAA6rQAydTzVndHR4el89NJsJsYom1d+Rj6wheQX7G+P85rIzx2zeMnNmcsh7PACBEwjAYaE5pCVQEYp9mnHRSokuTpsw/5c7meDBeLDmsfxFQYJbCcBhudWyedZrasum93g071pa4fuvPEVllV0wsUXoycU99XP/mFVGJC4IAnBYBWHmzCs5acOGU0YnipdSw1hIuUoyz2lqyn5ylLf3eY+t3jZ//j9NlQxhShOAw1LafOYp39jYqD05rvxqztlqknqmeZJzl0RO6y80wb/0kv177mlqatJzl4ScbiEAh+UWS+ZRj6qW9o/rmh4iEZfmIcbKrE8Kzuq6A7VPWFkIZMtPAA5LfhtZpqEvHC3XBFtNPZmvWlaIiYKpsd6jc7aUHNdeE8VClEIE4LAUMpZZqlZFIqWi37NQCLGEZJaaJdcmOUc457fxkuTtnX7/EZvKRDGSEIDDksQQtqghBK8MR6+ineZraNPmu2wp07pCXqEjQYu762o6aB8XdRLxUwgE4LAKwcpUx8rW6ET6gLfSxs9PuqnKNCn/c8ZEsKuudoeb6oW6pCYAh5Wai2ueVmzYfAZLJG6lCn2Nft1qb5qTF5uFt+jm+PzZf3WN8VCRIQTc2oCHVLTQHvjC4RKNjQrS7vFlNF46pUDqf5hGh6t0djTUHQj0F0idC6qacFhuMzfNU1WFo9N1xm+nqp3jtuplWJ/fa0ws7AzU/hjzWxkSUyQZHJYihspEzamh6EUaF7Sfin82k/TuTyN+ptP5xJ5g7TPur2th1BAOywV29oXvejvXEyupN1FL1dFcUCUzq2DskG8T3LO8O3D9380UDFn2E4DDsp+5aSXOaOwo7h13iO5QH7xLfaxpgt0oSLCDXGMr/lqib9jh9w+4sYqFUCc4LEWtPLU1WkFdqRZS//2KVsEptXdTl6uhp6427pQCKDd3AnBYubNzJOcJYbSmOqKAewrtQRgy9YwJh6WIzYYJo6WI9tKqiTBk0pomtWJwWKm5SPM0kzBa0iirqCIIQ6aO4eCwJLZVDmG0JK6NEqohDJnkZoLDktBA+YbRcr5K/Fdv6CAuc16X7DVAGLLsmdmVAw7LLtIZlGNyGK0MSjQ5CWd7SOKS+IKaew3JgzdDMH4b/Xm2ySXZIQ5hyOygnGUZcFhZArMiuaVhtKxQeKjMXmpI3y5NHm7e0tDQd+LrGc3No3s9Y4J0OPkmJc80IgzZUGs7+AQOy0H4RtE2htGyoqaDtyQkdLHswXr/q+kKmBaKnp7U+Eq6NLCa0qm4Gx9hyNIZ2KZ3cFg2gT65GKfCaJ2sR67/J0+1jc4sNnQHanZmI+ON847sDsozOZt8sqRFGDJnLQGHZTN/ScJo5VxriqrzMl0EuDAeqNma800IdKPE1HDMR90sw3FdkLMyzmVEGDKH2MNh2QRexjBaWVb9dbpb65ayA2M2bGmaeSzLvCmTT4xEik4/qs2hua0maoinpUwk8UOEIbPfOHBYNjBXIIxWOgpJuhRvEz8mmjoX+v+RLmGu76a3bH7bgCexjHpuAZJRlKscB/MhDJlN8OGwLAStWhitk1FQ44gznS3sqq994eR3VvzfF468jwsPbYMQV1oh32qZxAthyCyGDIdlAWDFw2jR1BR7TmcaTahXP2QBnhFFHl85baaEE0dMLF8ChCGz0CYqLi9biCNP0UYYrda2WXq/touW75tImmox/+iCOzG397W9FzvlrAwLxIM1j12yfy9FoebX0n//nKdV7M5eatheP6q94AtFr2LUJuxWwM3lAaZJ1lU8jBZNoovQsVHi1of9/oMmITFFjNFbTR7VbqSGupQEqvYFQPcqIgyZKQ3huBA4rDxpqh5GixrAD1lSW9LVUP37PFFYmn3auvazErr+LSrka/SrWrtFGDKTWodqhjep2vmLcUEYrR00V1XfFah9PH8a9knwhWMfpt5gM8V6nmRfqaaVhDBkeaKEw8oWoOJhtIy9QxSm/huXHth7d1NTkxGgQb0fskFFODaNHO7ttBXiXPUqwBCGLEejwWFlAU7xMFrGoeQ1iWMlax9adG1vFtWWNulgEI7xr8+lEWIjKTlOWkWHVQxhyIZFM8wLOKxhwJz4WPkwWpx9T0skbupsmKvailsG1mFs8PpoD1tOQ0WKIMS8GWWSJxHCkGVhCzisNLBUD6NlrFAJjdfHF1Q/laaarnlVsb7t/ULX1nIhpilXKYQhy8hkcFjDYFI8jNYfaFlqcfeCmh/lfEB5GC4qPPati36O64I2nvIPqaDvSToiDFkao8FhnQRH8TBah+mGz2/1jfGEt82efTSN3V3/yrgU8Z9/PXQd9bZWUWXPULDCCEOWwmhwWMehKB5GS6cd1dFESXL5Q3Pn/i2FnQv2kXGdT1mieDGtji4iCKMUA4EwZCcZrOAdlgvCaP2EafqN8QX+3yr2YbRV3cvvuOtdXm/yVir0alsLNqEwhCH7N8SCdliKh9HazTm/sWtBdbwQ56ly9QNTQ22XeLjWTDeHfipXGQ7mK/gwZAXpsBQPo7Wf9k02/m10MrLD7x9w8MOjbtEE0LcudiXtll9DlXivahUp5DBkBeWwFA+jlaB9Rut4UWJl17x5B1T7kMmo7+DxKlG6QDD9m7SiOEZGHdPoVJBhyArCYbkgjNYDGksu6qz7+ktpGjBe5UhgcGOw0FfQF4KfRHhyFONMtgILQ+Z6h6V2GC3xNG38bOheUPuIM5+GwiqVHNeFmkiupUnuCgVrXhBhyFzrsBQPo7WP5lduLj1r7He2zJyZVPDDo7TKvnD75RrTm+lg9QTVKuL2MGSuc1iKh9HqpxsI7vD0aau3Lqk+rNqHxU36GttdysaXX09OayXdvvUOxerm2jBkrnFYqofRoh3q93IPWxq/oeZPin04XK2uL3z3GC76vkGVrKffEpUq68YwZK5xWBWt0V9RY6J7wJX7eULTtYbO+upfKqd5ASlsTDFoHu9qukvsKgWr/WS8rvYyBfUeorJqV3EMqcAJD9RyVpztId2XxBfU3IuNn+nMKse7nvq5fyRNZlGMyVZdEy20oqiSA1Drs5HG5IiakwaORa96qVu7rCxx+Px4oPYHcFYWUbZIrNETjgeqP86Z+DIV8YpFxUDsMATc1MMaporSPB4MRJDQxbIH6/2vSqMVFMmeAIXC7mLs3hnNzQ/0esYEya430XzRKdkLQo5sCcBhZUssh/TkqbbRTuoG6lHtzCE7skhKYEtDg3Ht9LenhaJ3JTW+kuIRVtP/MWqx0F5wWBbCpS0KL9Oy+EK6SG8rhn4WgnZY9NZg7T5SYQ7d+b9eo20p9Pdkh1VybfH4NrDGtK8zwRtKXxs7gVZnHoCzsgaybFJ7grXPxAM1l9Ml7ZWk2y7Z9HODPuhhmWvFJE1vbOLHRFPnQv8/zBUNaUoQoAbQw1h8YiTyk9OPanNobquJFllOU0J3BZRED8tkIwmdbhMvTeI4jclcVRNnXP1DvesNJbr3XOP0AumPq4BMMCIclgkQTxDhoWMcAX2g6CUK9Ok3bokwVzykqUbgx/WzXx8oSqyhXtZPVNNdRn3hsCywyuAQQIg7e189+NTgbRH4KUgCNCwsqgxHg95+74uK3gAhnd3gsKw1ycWMi0fp2NB9VaHI2dYWBekyEagIRT9Pc1hP0ypxC/W6x8qkm8q6YNLdHuvN1Ll2BTmu28qSh9cc379jT8koxVYClc3t5whv8g46czjd1oILpDD0sOwz9GgqakWv59RdlaHYDBoyuubguX0I5S3p8rXfK6Ph/0rh0Z+nLS1wVhaZCg7LIrBpxJ4tuOigIAiP0EbDi9KkwysVCNAXT2Vr2yxvcf8uGv4vI5WVuoJGBcQn6giH5ZDF6EbRSbQremdlKLrxi+u/i306Dtkhn2IrWtouptXgR+kusx+QnPJ8ZCFvZgQwh5UZJ6tSaTQwnNufPDbLF4ot7zuw585tTU0UHQc/MhMwvmCOJY6tJNsZQSvwpW+jsQDbRthpihpHG6TXlY4v3+lbF/1cmnR45SAB49pkWjiZT18wLxlfNHBW9hsDDst+5ulK/CDX2U9pSfxHV6yLvjddQryzl0BVS3RS6bjyX1Op6+l3nL2lo7R/EcCQUMa2wNmXkjqrpFWntYmB4tUPLbq2V0Y1C0GnivWxd4ukvpYONM8ohPrKXkf0sOS1UImx6mSsPlWEo1/GNgh7DUWX842uDMeWs6R4gTMOZ2Uv/mFLg8MaFo00L8ppE+J/V7TGHq9qiXxEGq3cqghtU6gItV1J++VeoAv5mqiaxv45/EhCAA5LEkOMqAZnn9Q17Sma9I1evmmTanHyRqyeDAkqW2MfpC+Gh+n+sh+SPu+WQSfo8FYCmMNSq0UYu+Nr6DDtDJrfato3OrneuMZErSrIp23lxo3j6IaNJoqaPI/O/eGGDflM9KZG6GFJbJxhVTMO03LRTIdrn6kMtU0ZNh1epCVgXP9T2RqdY1wHRN8ECygxnFVaYs6/hMNy3gb5aHCB4LyHholbpzTHzs1HUKHlnRqKfIqu/9lO175EcCOoOtbHkFAdW6XT9AqPR0yh3fItRf181dYl1YfTJS7kd1XNm96pe7xriMFXCpmDqnVHD0tVyw3Vu5h2yy9JjNJ3+0LRaxsbG2HbExhN2rx5FHG5iZzVbjiroY1HlSdo1KpYKnM9z6Q7xL+7ffy7flEVjrkmRHnm1T8ppXGbQqhtWumhxHPEZRW9LctZFjI6TgAOy3ETWKWAuEwX4le0mri5YsPmM6wqRWa5VesiF9A1Pt00z/cA6XmOzLpCt8wIYA4rM07qpuLiayyRuJJ2y68se21s65ammcfUrUxmmk+ORMYWH/Us13URoAl1tPHMsCmRCj0sJcyUt5Kn0m75Nb3jDz1Lx02MIJ+u/DHm7Xzh2PXFfdqLjIkGqiSclcssDYflMoOmr444j46bdNIwMT411H5++rRqvfWFox/bPr78CS5EO23+xEkAtcyXsbZwWBmjou9szqdR8j9kkUXOpFz4NK4/S8dQ7jCGT3IqmZlWU1oiZ/pao9+hG1x/STkuySwXUqlKAA4rC8t1B2r+l6LeTKAsxqHY/iyyypiUhkuiwRg+0TXN1aptg5jR2FFM83KLvJr2Is1TXScj4Ax0GqCh+toM0iHJcQJwWFk2BSNEF4UgXyG4bjiuziyzy5echk90e2aMhlNPUjCFT8in4FCNfOvafL3jD/7WmJejneqnDE2hxJNOjSUnxIO1i5XQVhIlMSmZoyG6A/7fUdYraJL3Cpo3aaW/Vb8hdCIFU/g/Olt3D08mlnQ2zP1zjmgsy1bVeud5utBamM5VXjjYxRivj9fV9FgGysWC0cPK07guGyZSp4V91dgNbuwKN3aH54nHlOzTbms/lY4drdaZ5zm6+kVNZyXYQdq4Wr9vlH4RnFXuzQIOK3d2b+Z03TCRdoMbu8KN3eG+lth0x247HdylHr3aOG5kHDsi4EUmmMtuERStnrUJzXNeV6A2hOuA8sNv3K/kih+6sYDahbU/NHeVES8XDRP/BfRhwT113YHrn7eW8L+lV6xr/6gQephW/z5uV5kWlPM4rSwTt5qd6WTL1HbT6SnDO/SwLLCC24aJhGgyF8lnKJpPq3HZnQXI3hRp3KZKH+AY0/UnlXVWnO2hbtWseKDmMyM5KytZulE2HJZFVnXhMNFDGzIDxmV3FO3Yb1x+Zya6iZFIUWU4GqTbVGmXOqum34x6s2bqYIKsoySjSSvRL+gO1t5H822W9/pN0FkpEXBYFpvLWE2koeQVbtl0OnjZnRB30uV3T9GO+U+bgY96bp+n21Ofpl5JC7kpNTeycnafJvTzjS0vnX7/ETO4QMZQAtjWMJSJJU+MYSKFjnqYorEYk8dL6bfEkoLsE3oxXdP8KA3fOuiDuqgz6H8l26Irm9vPEd7kHbQ0OT3bvBKl/w0dgaijlb/HJNLJtaqgh2WjaV04TDTozdS5toscV6MRyy8TnJev/V4Z9c5WCo/+PH3YVXVW/6Depr/szLEfjQfhrDKxuxlp4LDMoJilDLcNE6n6hqNaQb3HXZWh2Ixht0EY2xRa22YZwWGNILGUR8VeZoKGrqFi3XteV11t25aZM5NZmh/J8yAAh5UHvHyzunA18WzBRQddmvfI1FD0ohP5VLS0XUyT9Y/Sbvof0PPyfNk5kZ+OMD3IdXYRTajX/7h+9utO6FDoZWIOy+EWYAwTSYUVvnDk+1xoIfq7ymGV8i6e1sYm0cbTnbTpMyK8IsQTPEgfdj8JVvILkurystBFfXegtgsrf3k3j7wEKNmA8qqxpJldOEzUyEnNZUm+e/BfNZ3VYVq1XKyzvg/Gg3M64ayc//DAYTlvg7do4MJhomSEM1ZnM/N63x8P1K7tDgRUv0oo40rLnhBDQgkt5MZhooSYh1PpCQreEegJztk+XAI8d44AHJZz7Ecs2YVX2IxYZ6cS0Jb0v2iCLemqq7kHQz+nrDByuRgSjszI8RQYJlpqgn6aVL+1z3vs/K5g7d1wVpayzls4elh5I7RHAIaJFnAW7H+4ri3qaqj+vQXSIdICAnBYFkC1UiSGiabQfVZnPNgTrPmpKdIgxDYCGBLahtrcgjBMzInnAcp1w5H9ez/cUwdnlRNBhzOhh+WwAfIpHsPEjOnplHJTiae48f4brnst41xIKB0BOCzpTJK9QhgmpmEm2CPMowfjC/y/TZMKrxQhgCGhIobKRE0ME99C6Q8aE1+ia18mw1ll0nrUSAOHpYadMtbSpVfYZFx/SniEblO4+cgY74WddXPuxzaFbNDJnxZDQvltlJOGhThMpPuppI2pmJMRkWkIAfSwhiBx14OCGCYK9hRn4pN0P9XVMgaAdVeLcrY2cFjO8reldBcPE/cRwOsvObD3sq66Ob+wBSYKcZQAhoSO4re3cBcNEwcYEy2Cl67qDlx9KG4vRpTmIAH0sByE71TRig8TOzWWnBCvm7PEcFZOMUS5zhBAD8sZ7o6XquCm010UqrCetin0OA4PCjhGAD0sx9DLUbD0N50KdpBuU6jfN0q/CM5KjjbjpBZwWE7Sl6hsCYeJtJ2KtQnNc15XoDa0w++neSv8FDoBDAkLvQWcUH+JhomPU6TsOnKiO2EeEDiRABwW2sMQAo6tJnK2R+hsUXddTQd2qA8xCx4QAQwJ0QyGJfDmMJEuuhs2kUkvaPh3v1aiX0Ax/+6DszIJqgvFwGG50KhmVmlwmMiZ5Tcd0LGaZzr9/iNm6g5Z7iMAh+U+m6JGIOBaAnBYrjUtKgYC7iMAh+U+m6JGIOBaAnBYrjUtKgYC7iMAh+U+m6JGIOBaAnBYrjUtKgYC7iMAh+U+m6JGIOBaAtjp7lrTomKyE/CFwyVMlNbR3V6yqyqNfuhhZWGKilDksiySIykIpCYgBK8MtU3jYvRzdLXzbakT4WkqAnBYqagM94xrT1S0tn1v2rr2s4ZLgucgkI6AL3zXhRXhaA8d7n6A0r0vXVq8G0oAQ8KhTEZ4wq9J6PqXKlpjq46M8bRsmz376AgZ8BoEWOXGjePEQHEjE8kb6CJCD5DkRgA9rNy4ldG8w62lhxLP+Vpi0xl18XMTg1xuJzCjo8NDvfKv6wNFL1GbofkqBmeVh9HhsPKAR1nP4Zq4vyIce2hKc9uE/EQht9sI+MJtn+l99fUd1KPaRN9op7mtfk7UB0NCc6hP9nj405Xhtk2JhNb4YEPNfnPEQoqKBCrWx94tkvpaLvgMFfWXWWc4LPOs46GR4Q2aR3zZF45+s++1vdFtTU0J88RDkuwEqiKR0mQfX8KSYjFnfJTs+qqoH4aEJlvN6PpzwTaWji/fUdna/lmTxUOcjASMbQqtbbP0o9puzvlyUhHOyiI7wWFZBJbEXiSY/gitJv5wasum91hXDCQ7SaCqJfKRynD7Y4LxH5Ae5U7qUghlY0houZXFlZrmraoIxdYmBopXP7To2l7Li0QBlhO4fNOmd3iPeVfpjFXT6h9WiS0n/kYB6GHZA7qEcbHMW9y/mxzXV7ANwh7oVpQyo7GjmLYpNHiPeWibAquhXzgrK0APIxMOaxgwFj1+Jzmue2gbxM8rW6MTLSoDYi0i4FvX5usdf/AZ8lF30O8Yi4qB2DQEMCRMA8fCV5+g467bK1qjd3kFu3lrsHafhWVBdJ4EKta3vZ8lWDPTeWWeopA9TwKu6WHRXILRmHbnycPO7MZQojrB2UuVrbGFxlDDzsJR1sgEJkciY32tbWtZkj9LocdUdVa7hSYqRq6tGilc47B66mrj+0bp/8E5q6fbOg6qgX9Qy1MFE2t7xx96tjIcU/VDoRDukVVtbGzUfOHY9cV92ou0n2oh5SgaOZd0KV6nxYCg8ZnoXjCnWzrtclTIVUPCHX7/AHEI0Yn4e7hI3kJ/z6FfRZyyOE8I1kmT8t2aJ9nQucC/K0ebIlseBGg/1Se2Mx7mQkxUdDpdp32AEZ7Ql3cu9P8jDxRSZnWVw/oX4e7A9X+nv+dODUU3kbdqoYb3OSnpp1KKC5+ua5+n/VvhY6OStzzs96vUW0xVIyWe0emEcvqg30Zzi19RQuFUSgr2CPPowa4FfssD36Yq3o5nrnRY/wLXE6x9hrYQTPaF2r9Ah5RpZYedYwdUE8ogu4iG4qPaNeS4bio7c8zmLTNnJk2QCxEnEZjR3Dy613vKjTSN8A16VaoooN8JnS/sDlY/QHNtrr6+VJHhUh7NiAzYXV/zY8H7LqTdyEtopvufeUizO+vbyXFFe189uH1qKPIpuwt3dXl0nKYi1HZlr2fM87Tvc6Wizuqw0aapbU8w2rjbnZXRHgtu01vFhs1n8MTAKjL0bNXqTzrfm0xoix+68fo9djoT2n6xgsprtLjMpnhdrVGO5T80VXCRxkWImr+qZz2NXtRdzOtdFp8/+6+WA5OoAFcPCVNxPm7gatq4uZEabIhW6JTpudD937O83uQXaDVxdWni0NotDQ19qeqIZ6kJfHH9d0/rTw7QYoz4OtleydEFrVr+nOvJus56/69T19LdT5U0mhkm6aqr3dEVqP40rczNInmvmCHTJhmjhRBNvZ5Td1WGYjNwzGdk6pMaG72+UOyG/uQx49bPeZRDxXZPbVRcZbTZQnVWhqVVNNzILTTTFMb8VrD2vrLk4Quoj21cC3Ik06wSpDtbcNFBx3x+VhVu/5AE+kipAl2qOLnstPLfkKnXkYLjpFQyvVJHjLZptNF43ZyOQpinSoej4IaEqWAcH1qtpKXtzbTG8m1Kc3WqdJI++4wu9F/TBHJUS4hlbtx7kwt3XzjyPho+3U5z69NzyS9Jnru1ZGJpZ8PcP0uij+NqwGGdYILuQO1e+u815Lg2kONqpb8vddxCmSmg0TevXy/iV9FNAiv2jRIbj2+izSy3i1JN2rDhlNJE0U208ncjVUvR4078V9R7DlJ7fMJFpjGlKoU9JBwGodFQLtm/9+M0MXstdcf/MkwyGR+/zVhIOP2o9rQv3H65jApapZNxnIb2rF1Tmih+kRgYe6qUc1ZGW6Mvymsu2b/nE3BWqVsKelipubCmpiY6T82+T9/Y95cOlCyha2GMM2WqXH37AS70B+k83FY9wW6koBgvD1NNVzyuCscu3S4E9YjFxxSt0FHqEd7eV9R/27b58//ZpWgl7FAbDmsEykYDoiTfpGuO27nmWUPzIspEQqHzcNM8HjaVVshaivr5qq1Lqg+PUF2lXk9piZypadq3dSGuU0rxtyrbwTx8cfyGmj8pXAfbVIfDyhB1T/3cP1LSmXQ4+dPU26JNh+zDGWZ1OlkxrZAtSYwS19E1Nks/un/P94/3Hp3WK+fyfeFwicZGBalXsoyGUafkLMjZjDvpZpG6rkDt486qoVbpmMPK0l7xYM1jZWeOvYTmGmro/NnfsszuZPIzaJPsd7aPL/9lRShymZOK5Fy2EZ0m1DaNi9HP0Z+rlXRW1GaMtmO0ITir7FsCeljZM2PHDyK3+8J3b+F63zI64DIu6x8AAAYoSURBVBQkMarcmXQpbfJ+glYTv+/VPEu3LqhWYlGBrgy6kIejLYJzVRcT6Ooj0SK00lXxwNWHcmh2yEIE4LDyaAbdbzS8xVOaY20ej7idRH0hD3E2Z+XXJHT9S7SyturIGE/Lttmzj9qsQEbFVW7cOE4MFDcykbyBVv88GWWSL9EDySRf+GBDrasXP+zAjiGhCZSNVTg6uDtdZ3wyiXvWBJF2iSijb/1bSw8lnvO1xKbLdMxnRkeHh3qBX9cHiozjNHUEREVn9azRJoy24faVWrsaLByWiaR76mp+emT/3g/T6tx8ml95zUTRVos6h+4Lu5+O+Tw0pbltgtWFjSTfF277TO+rr++gHtUmuk7ktJHSy/besD1FKpxntAWjTcimn8r6FNz1MnYZ682hDBM0lFGqd5CkVcVNiYTWSL2C/QYvu66XoeX9zSKpr1Vp68hJ7SlBTnYDLzrW1DVv3gG72lohlQOHZbG1K1uiHxAahYhibKrFRZkqfrCHyNk3+17bGy0dX76MhDeaWsBQYcZQ+lz6VWVz7ltrIDju4h9qU9OfwGGZjjS1wKmt0QoafxuO6/zUKSR9KthvyXEZmxqrJNXQabWMMFr1bopM4zTQdOXDYaWjY/K7iZFI0Rn92nyhsxXkBMaaLB7i7CVghNEq6IPm9uJ+ozQ4LAeo056it6sXhswBUHIW6eowWnIi/7dWcFgOWmjwbnHVwpA5yMvxoo+H0Yq7OIyW44xHUAAOawRAlr+mMyYKhiGzHItkBRRMGC3JuA9RB/uwhiCx+YHaYchshmV7cQUXRst2wlkWiB5WlsCsTq5yGDKr2dgon3Z1FGYYLRsZ51QUHFZO2KzPRGHIJhq3h6oUhsx6KtaXUOhhtKwnnF8JcFj58bM2tzG/1RqbSfcmraGCzra2sIKX/gptU1gUD9RuKfTINDK3BMxhyWwdtcOQyUz2RN0QRksVS5Ge6GEpZCyK5lOuYBgymQkjjJbM1kmhGxxWCiiyPyLH9THFwpBJhhRhtCQzSMbqYEiYMSp5EiochsxRiLT0hzBajlog/8LRw8qfoaMSBgOHqheGzG5mg2G0jhwPo2V34SjPPAJwWOaxdFQShSF7j2phyGwChjBaNoG2oxg4LDso21iGgmHIrKKDMFpWkXVQLhyWg/CtKtq4D/3IXw5+jeZsbqV14HdYVY6Uco0wWozdVHrW2O8cj24kpZpQKjcCcFi5cVMiF4UhG6NgGLJc2b4RRouXrjoezShXOcgnMQE4LImNY5ZqFIbsXPXCkGVV++NhtGoQRisrbOolhsNSz2Y5azy1NfafGhMhEvDBnIXIldEIoxVEZBq5jGKlNtiHZSVdyWQrHIbsLSQRRkuyhmWjOuhh2QhbpqIUDUOGMFoyNSIHdIHDcgC6TEUqE4YMYbRkajaO6QKH5Rh6uQqWOAwZwmjJ1VQc1QYOy1H8chUuWRgyhNGSq3lIoQ0clhRmkEsJh8OQIYyWXM1BKm3gsKQyh1zK2B6GDGG05GoAEmoDhyWhUaRSyZ4wZAijJZXR5VUG+7DktY0cmlkbhgxhtOSwsjJaoIeljKnkUNSkMGQIoyWHOZXTAg5LOZPJoXCuYcgQRksO+6mqBRyWqpaTQe/swpAhjJYMNlNcB8xhKW5AR9XPLAwZwmg5aiR3FY4elrvs6WhtUoQhQxgtRy2CwkEABEYkYIQhM35HTIgEIAACIAACIAACIAACIAACIAACIAACIAACIAACIAACIAACIAACIAACIAACIAACIAACIAACIAACIAACIAACIAACIAACIAACIAACIAACIAACIAACIAACIAACIAACIAACIAACIAACIAACIAACIAACIAACIAACIAACIAACIAACIAACIAACIAACIAACIAACIAACIAACIAACIAACIAACIAACIAACIAACIAACIAACIAACIAACIAACIAACIAACIAACIAACIAACIAACIAACIAACIAACIAACIAACIAACIAACIAACIAACIAACIAACIAACIAACIAACIAACIAACIAACIAACIAACIAACIAACIAACIAACIAACIAACIAACIAACIAACIAACIAACIAACIAACIAACChL4fwV2ljre7jg8AAAAAElFTkSuQmCC;" parent="1" vertex="1">
          <mxGeometry x="209" y="172.38" width="55.25" height="55.25" as="geometry" />
        </mxCell>
        <mxCell id="vs9VKS1Gs_cTsC5QVMMd-13" value="" style="curved=1;endArrow=classic;html=1;rounded=0;exitX=0.25;exitY=1;exitDx=0;exitDy=0;strokeColor=#4D4D4D;dashed=1;strokeWidth=2;" parent="1" source="vs9VKS1Gs_cTsC5QVMMd-12" edge="1">
          <mxGeometry width="50" height="50" relative="1" as="geometry">
            <mxPoint x="353.5" y="434" as="sourcePoint" />
            <mxPoint x="403.5" y="484" as="targetPoint" />
            <Array as="points">
              <mxPoint x="199" y="325" />
              <mxPoint x="188" y="424" />
              <mxPoint x="236.5" y="469" />
              <mxPoint x="295.5" y="484" />
              <mxPoint x="353.5" y="484" />
            </Array>
          </mxGeometry>
        </mxCell>
        <mxCell id="vs9VKS1Gs_cTsC5QVMMd-14" value="&lt;font color=&quot;#ffffff&quot;&gt;&lt;span style=&quot;font-size: 18px;&quot;&gt;客户端fd&lt;/span&gt;&lt;/font&gt;" style="rounded=1;whiteSpace=wrap;html=1;strokeColor=none;fillColor=#535F80;" parent="1" vertex="1">
          <mxGeometry x="504" y="181" width="87.5" height="38" as="geometry" />
        </mxCell>
        <mxCell id="vs9VKS1Gs_cTsC5QVMMd-16" value="&lt;span style=&quot;font-size: 18px;&quot;&gt;&lt;font color=&quot;#ffffff&quot;&gt;sock&lt;/font&gt;&lt;/span&gt;" style="rounded=1;whiteSpace=wrap;html=1;strokeColor=none;fillColor=#535F80;" parent="1" vertex="1">
          <mxGeometry x="504" y="375" width="87.5" height="38" as="geometry" />
        </mxCell>
        <mxCell id="vs9VKS1Gs_cTsC5QVMMd-18" value="&lt;font style=&quot;font-size: 15px;&quot; color=&quot;#808080&quot;&gt;4.读取到发来的数据&lt;/font&gt;" style="text;html=1;strokeColor=none;fillColor=none;align=center;verticalAlign=middle;whiteSpace=wrap;rounded=0;" parent="1" vertex="1">
          <mxGeometry x="557.37" y="219" width="139.5" height="30" as="geometry" />
        </mxCell>
        <mxCell id="bktlQij6pxWbkSuWLoxw-1" value="" style="shape=image;verticalLabelPosition=bottom;verticalAlign=top;imageAspect=0;aspect=fixed;image=data:image/svg+xml,PHN2ZyB4bWxuczp4bGluaz0iaHR0cDovL3d3dy53My5vcmcvMTk5OS94bGluayIgeG1sbnM9Imh0dHA6Ly93d3cudzMub3JnLzIwMDAvc3ZnIiBoZWlnaHQ9IjIwMCIgd2lkdGg9IjIwMCIgdmVyc2lvbj0iMS4xIiB2aWV3Qm94PSIwIDAgMTAyNCAxMDI0IiBjbGFzcz0iaWNvbiI+PHBhdGggZmlsbD0iIzUzNUU4MCIgZD0iTTg4Ni43IDI0Ny42TDcxMy40IDczLjRjLTYtNi0xNC4yLTkuNC0yMi43LTkuNEgxOTJjLTM1LjMgMC02NCAyOC43LTY0IDY0djc2OGMwIDM1LjMgMjguNyA2NCA2NCA2NGg2NDBjMzUuMyAwIDY0LTI4LjcgNjQtNjRWMjcwLjJjMC04LjUtMy4zLTE2LjYtOS4zLTIyLjZ6TTgzMiA4NjRjMCAxNy43LTE0LjMgMzItMzIgMzJIMjI0Yy0xNy43IDAtMzItMTQuMy0zMi0zMlYxNjBjMC0xNy43IDE0LjMtMzIgMzItMzJoMzg0djE2MGMwIDM1LjMgMjguNyA2NCA2NCA2NGgxNjB2NTEyek03MDQgMjg4Yy0xNy43IDAtMzItMTQuMy0zMi0zMlYxMjhsMTYwIDE2MEg3MDR6Ii8+PHBhdGggZmlsbD0iIzUzNUU4MCIgZD0iTTY3MSA2NzJIMjg3Yy0xNy43IDAtMzIgMTQuMy0zMiAzMnMxNC4zIDMyIDMyIDMyaDM4NGMxNy43IDAgMzItMTQuMyAzMi0zMnMtMTQuMy0zMi0zMi0zMnpNMjg3IDQ4MGMtMTcuNyAwLTMyIDE0LjMtMzIgMzJzMTQuMyAzMiAzMiAzMmgzODRjMTcuNyAwIDMyLTE0LjMgMzItMzJzLTE0LjMtMzItMzItMzJIMjg3ek0yODcgMzUyaDE5MmMxNy43IDAgMzItMTQuMyAzMi0zMnMtMTQuMy0zMi0zMi0zMkgyODdjLTE3LjcgMC0zMiAxNC4zLTMyIDMyczE0LjMgMzIgMzIgMzJ6Ii8+PC9zdmc+" parent="1" vertex="1">
          <mxGeometry x="522.25" y="312" width="51" height="51" as="geometry" />
        </mxCell>
        <mxCell id="bktlQij6pxWbkSuWLoxw-2" value="" style="shape=image;verticalLabelPosition=bottom;labelBackgroundColor=default;verticalAlign=top;aspect=fixed;imageAspect=0;image=data:image/png,iVBORw0KGgoAAAANSUhEUgAAASwAAAEsCAYAAAB5fY51AAAACXBIWXMAAAsTAAALEwEAmpwYAAAgAElEQVR4Xu2dC3hcVbXH9z4zSdoEWls+5WFERRCkXkQr4OvT6q20k4Ra5bZU5WFJ0rEtnUxCX0JtGmqxtJBMpi8mM6E+4AqpXqQ3mQRELOBVpNQK8mgBX7SKVWlpa5qmmTn7rhMqlmYymcd57H3mn+/L1/Scvdde+7f2rNnvxRh+QAAEQAAEQAAEQAAEQAAEQAAEQAAEQAAEQAAEQAAEQAAEQAAEQAAEQAAEQAAEQAAEQAAEQAAEQAAEQAAEQAAEQAAEQAAEQAAEQAAEQAAEQAAEQAAEQAAEQAAEQAAEQAAEQAAEQAAEQAAEQAAEQAAEQAAEQAAEQAAEQAAEQAAEQAAEQAAEQAAEQAAEQAAEQAAEQAAEQAAEQAAEQAAEQAAEQAAEQAAEQAAEQAAEQAAEQAAEQAAEQAAEQAAEQAAEQAAEQAAEQAAEQAAEQAAEQAAEQAAEQAAEQAAEQAAEQAAEQAAEQAAEQAAEQAAEQAAEQAAEQAAEQAAEQAAEQAAEQAAEQAAEQAAEQAAEQAAEQAAEQAAEQAAEQAAEQAAEQAAEQAAEQAAEQAAEQAAEQAAEQAAEQAAEQAAEQAAEQAAEQAAEQAAEQAAEQAAEQAAEQAAEQAAEQAAEQAAEQAAEQEB1Alz1CkB/uQhUtkQ/IDTWbGjFddbQVV/7glwaQhuVCcBhqWw9iXSf0hwb79FEI+NsPqnlOa5akgm2gRcPrOiaN++AROpCFUUJwGEpajhZ1J7U2OgtHV/uJ31uod/xqfQSjL2mCbG898Cf27Y1NSVSpcEzEMiEABxWJpSQJiWBynDbZBr4hYRgE1ImGPrwWc5FfVdgzsNDX+EJCIxMAA5rZEZIcRKBqtY7z0ty7+1ciGm5wBGcb9UT7MYHG2peziU/8hQuATiswrV91jWfHImMLTrKl3HG6yhzUdYC3pphgOa3QkIb/a3uwNWH8pSF7AVCAA6rQAydTzVndHR4el89NJsJsYom1d+Rj6wheQX7G+P85rIzx2zeMnNmcsh7PACBEwjAYaE5pCVQEYp9mnHRSokuTpsw/5c7meDBeLDmsfxFQYJbCcBhudWyedZrasum93g071pa4fuvPEVllV0wsUXoycU99XP/mFVGJC4IAnBYBWHmzCs5acOGU0YnipdSw1hIuUoyz2lqyn5ylLf3eY+t3jZ//j9NlQxhShOAw1LafOYp39jYqD05rvxqztlqknqmeZJzl0RO6y80wb/0kv177mlqatJzl4ScbiEAh+UWS+ZRj6qW9o/rmh4iEZfmIcbKrE8Kzuq6A7VPWFkIZMtPAA5LfhtZpqEvHC3XBFtNPZmvWlaIiYKpsd6jc7aUHNdeE8VClEIE4LAUMpZZqlZFIqWi37NQCLGEZJaaJdcmOUc457fxkuTtnX7/EZvKRDGSEIDDksQQtqghBK8MR6+ineZraNPmu2wp07pCXqEjQYu762o6aB8XdRLxUwgE4LAKwcpUx8rW6ET6gLfSxs9PuqnKNCn/c8ZEsKuudoeb6oW6pCYAh5Wai2ueVmzYfAZLJG6lCn2Nft1qb5qTF5uFt+jm+PzZf3WN8VCRIQTc2oCHVLTQHvjC4RKNjQrS7vFlNF46pUDqf5hGh6t0djTUHQj0F0idC6qacFhuMzfNU1WFo9N1xm+nqp3jtuplWJ/fa0ws7AzU/hjzWxkSUyQZHJYihspEzamh6EUaF7Sfin82k/TuTyN+ptP5xJ5g7TPur2th1BAOywV29oXvejvXEyupN1FL1dFcUCUzq2DskG8T3LO8O3D9380UDFn2E4DDsp+5aSXOaOwo7h13iO5QH7xLfaxpgt0oSLCDXGMr/lqib9jh9w+4sYqFUCc4LEWtPLU1WkFdqRZS//2KVsEptXdTl6uhp6427pQCKDd3AnBYubNzJOcJYbSmOqKAewrtQRgy9YwJh6WIzYYJo6WI9tKqiTBk0pomtWJwWKm5SPM0kzBa0iirqCIIQ6aO4eCwJLZVDmG0JK6NEqohDJnkZoLDktBA+YbRcr5K/Fdv6CAuc16X7DVAGLLsmdmVAw7LLtIZlGNyGK0MSjQ5CWd7SOKS+IKaew3JgzdDMH4b/Xm2ySXZIQ5hyOygnGUZcFhZArMiuaVhtKxQeKjMXmpI3y5NHm7e0tDQd+LrGc3No3s9Y4J0OPkmJc80IgzZUGs7+AQOy0H4RtE2htGyoqaDtyQkdLHswXr/q+kKmBaKnp7U+Eq6NLCa0qm4Gx9hyNIZ2KZ3cFg2gT65GKfCaJ2sR67/J0+1jc4sNnQHanZmI+ON847sDsozOZt8sqRFGDJnLQGHZTN/ScJo5VxriqrzMl0EuDAeqNma800IdKPE1HDMR90sw3FdkLMyzmVEGDKH2MNh2QRexjBaWVb9dbpb65ayA2M2bGmaeSzLvCmTT4xEik4/qs2hua0maoinpUwk8UOEIbPfOHBYNjBXIIxWOgpJuhRvEz8mmjoX+v+RLmGu76a3bH7bgCexjHpuAZJRlKscB/MhDJlN8OGwLAStWhitk1FQ44gznS3sqq994eR3VvzfF468jwsPbYMQV1oh32qZxAthyCyGDIdlAWDFw2jR1BR7TmcaTahXP2QBnhFFHl85baaEE0dMLF8ChCGz0CYqLi9biCNP0UYYrda2WXq/touW75tImmox/+iCOzG397W9FzvlrAwLxIM1j12yfy9FoebX0n//nKdV7M5eatheP6q94AtFr2LUJuxWwM3lAaZJ1lU8jBZNoovQsVHi1of9/oMmITFFjNFbTR7VbqSGupQEqvYFQPcqIgyZKQ3huBA4rDxpqh5GixrAD1lSW9LVUP37PFFYmn3auvazErr+LSrka/SrWrtFGDKTWodqhjep2vmLcUEYrR00V1XfFah9PH8a9knwhWMfpt5gM8V6nmRfqaaVhDBkeaKEw8oWoOJhtIy9QxSm/huXHth7d1NTkxGgQb0fskFFODaNHO7ttBXiXPUqwBCGLEejwWFlAU7xMFrGoeQ1iWMlax9adG1vFtWWNulgEI7xr8+lEWIjKTlOWkWHVQxhyIZFM8wLOKxhwJz4WPkwWpx9T0skbupsmKvailsG1mFs8PpoD1tOQ0WKIMS8GWWSJxHCkGVhCzisNLBUD6NlrFAJjdfHF1Q/laaarnlVsb7t/ULX1nIhpilXKYQhy8hkcFjDYFI8jNYfaFlqcfeCmh/lfEB5GC4qPPati36O64I2nvIPqaDvSToiDFkao8FhnQRH8TBah+mGz2/1jfGEt82efTSN3V3/yrgU8Z9/PXQd9bZWUWXPULDCCEOWwmhwWMehKB5GS6cd1dFESXL5Q3Pn/i2FnQv2kXGdT1mieDGtji4iCKMUA4EwZCcZrOAdlgvCaP2EafqN8QX+3yr2YbRV3cvvuOtdXm/yVir0alsLNqEwhCH7N8SCdliKh9HazTm/sWtBdbwQ56ly9QNTQ22XeLjWTDeHfipXGQ7mK/gwZAXpsBQPo7Wf9k02/m10MrLD7x9w8MOjbtEE0LcudiXtll9DlXivahUp5DBkBeWwFA+jlaB9Rut4UWJl17x5B1T7kMmo7+DxKlG6QDD9m7SiOEZGHdPoVJBhyArCYbkgjNYDGksu6qz7+ktpGjBe5UhgcGOw0FfQF4KfRHhyFONMtgILQ+Z6h6V2GC3xNG38bOheUPuIM5+GwiqVHNeFmkiupUnuCgVrXhBhyFzrsBQPo7WP5lduLj1r7He2zJyZVPDDo7TKvnD75RrTm+lg9QTVKuL2MGSuc1iKh9HqpxsI7vD0aau3Lqk+rNqHxU36GttdysaXX09OayXdvvUOxerm2jBkrnFYqofRoh3q93IPWxq/oeZPin04XK2uL3z3GC76vkGVrKffEpUq68YwZK5xWBWt0V9RY6J7wJX7eULTtYbO+upfKqd5ASlsTDFoHu9qukvsKgWr/WS8rvYyBfUeorJqV3EMqcAJD9RyVpztId2XxBfU3IuNn+nMKse7nvq5fyRNZlGMyVZdEy20oqiSA1Drs5HG5IiakwaORa96qVu7rCxx+Px4oPYHcFYWUbZIrNETjgeqP86Z+DIV8YpFxUDsMATc1MMaporSPB4MRJDQxbIH6/2vSqMVFMmeAIXC7mLs3hnNzQ/0esYEya430XzRKdkLQo5sCcBhZUssh/TkqbbRTuoG6lHtzCE7skhKYEtDg3Ht9LenhaJ3JTW+kuIRVtP/MWqx0F5wWBbCpS0KL9Oy+EK6SG8rhn4WgnZY9NZg7T5SYQ7d+b9eo20p9Pdkh1VybfH4NrDGtK8zwRtKXxs7gVZnHoCzsgaybFJ7grXPxAM1l9Ml7ZWk2y7Z9HODPuhhmWvFJE1vbOLHRFPnQv8/zBUNaUoQoAbQw1h8YiTyk9OPanNobquJFllOU0J3BZRED8tkIwmdbhMvTeI4jclcVRNnXP1DvesNJbr3XOP0AumPq4BMMCIclgkQTxDhoWMcAX2g6CUK9Ok3bokwVzykqUbgx/WzXx8oSqyhXtZPVNNdRn3hsCywyuAQQIg7e189+NTgbRH4KUgCNCwsqgxHg95+74uK3gAhnd3gsKw1ycWMi0fp2NB9VaHI2dYWBekyEagIRT9Pc1hP0ypxC/W6x8qkm8q6YNLdHuvN1Ll2BTmu28qSh9cc379jT8koxVYClc3t5whv8g46czjd1oILpDD0sOwz9GgqakWv59RdlaHYDBoyuubguX0I5S3p8rXfK6Ph/0rh0Z+nLS1wVhaZCg7LIrBpxJ4tuOigIAiP0EbDi9KkwysVCNAXT2Vr2yxvcf8uGv4vI5WVuoJGBcQn6giH5ZDF6EbRSbQremdlKLrxi+u/i306Dtkhn2IrWtouptXgR+kusx+QnPJ8ZCFvZgQwh5UZJ6tSaTQwnNufPDbLF4ot7zuw585tTU0UHQc/MhMwvmCOJY6tJNsZQSvwpW+jsQDbRthpihpHG6TXlY4v3+lbF/1cmnR45SAB49pkWjiZT18wLxlfNHBW9hsDDst+5ulK/CDX2U9pSfxHV6yLvjddQryzl0BVS3RS6bjyX1Op6+l3nL2lo7R/EcCQUMa2wNmXkjqrpFWntYmB4tUPLbq2V0Y1C0GnivWxd4ukvpYONM8ohPrKXkf0sOS1UImx6mSsPlWEo1/GNgh7DUWX842uDMeWs6R4gTMOZ2Uv/mFLg8MaFo00L8ppE+J/V7TGHq9qiXxEGq3cqghtU6gItV1J++VeoAv5mqiaxv45/EhCAA5LEkOMqAZnn9Q17Sma9I1evmmTanHyRqyeDAkqW2MfpC+Gh+n+sh+SPu+WQSfo8FYCmMNSq0UYu+Nr6DDtDJrfato3OrneuMZErSrIp23lxo3j6IaNJoqaPI/O/eGGDflM9KZG6GFJbJxhVTMO03LRTIdrn6kMtU0ZNh1epCVgXP9T2RqdY1wHRN8ECygxnFVaYs6/hMNy3gb5aHCB4LyHholbpzTHzs1HUKHlnRqKfIqu/9lO175EcCOoOtbHkFAdW6XT9AqPR0yh3fItRf181dYl1YfTJS7kd1XNm96pe7xriMFXCpmDqnVHD0tVyw3Vu5h2yy9JjNJ3+0LRaxsbG2HbExhN2rx5FHG5iZzVbjiroY1HlSdo1KpYKnM9z6Q7xL+7ffy7flEVjrkmRHnm1T8ppXGbQqhtWumhxHPEZRW9LctZFjI6TgAOy3ETWKWAuEwX4le0mri5YsPmM6wqRWa5VesiF9A1Pt00z/cA6XmOzLpCt8wIYA4rM07qpuLiayyRuJJ2y68se21s65ammcfUrUxmmk+ORMYWH/Us13URoAl1tPHMsCmRCj0sJcyUt5Kn0m75Nb3jDz1Lx02MIJ+u/DHm7Xzh2PXFfdqLjIkGqiSclcssDYflMoOmr444j46bdNIwMT411H5++rRqvfWFox/bPr78CS5EO23+xEkAtcyXsbZwWBmjou9szqdR8j9kkUXOpFz4NK4/S8dQ7jCGT3IqmZlWU1oiZ/pao9+hG1x/STkuySwXUqlKAA4rC8t1B2r+l6LeTKAsxqHY/iyyypiUhkuiwRg+0TXN1aptg5jR2FFM83KLvJr2Is1TXScj4Ax0GqCh+toM0iHJcQJwWFk2BSNEF4UgXyG4bjiuziyzy5echk90e2aMhlNPUjCFT8in4FCNfOvafL3jD/7WmJejneqnDE2hxJNOjSUnxIO1i5XQVhIlMSmZoyG6A/7fUdYraJL3Cpo3aaW/Vb8hdCIFU/g/Olt3D08mlnQ2zP1zjmgsy1bVeud5utBamM5VXjjYxRivj9fV9FgGysWC0cPK07guGyZSp4V91dgNbuwKN3aH54nHlOzTbms/lY4drdaZ5zm6+kVNZyXYQdq4Wr9vlH4RnFXuzQIOK3d2b+Z03TCRdoMbu8KN3eG+lth0x247HdylHr3aOG5kHDsi4EUmmMtuERStnrUJzXNeV6A2hOuA8sNv3K/kih+6sYDahbU/NHeVES8XDRP/BfRhwT113YHrn7eW8L+lV6xr/6gQephW/z5uV5kWlPM4rSwTt5qd6WTL1HbT6SnDO/SwLLCC24aJhGgyF8lnKJpPq3HZnQXI3hRp3KZKH+AY0/UnlXVWnO2hbtWseKDmMyM5KytZulE2HJZFVnXhMNFDGzIDxmV3FO3Yb1x+Zya6iZFIUWU4GqTbVGmXOqum34x6s2bqYIKsoySjSSvRL+gO1t5H822W9/pN0FkpEXBYFpvLWE2koeQVbtl0OnjZnRB30uV3T9GO+U+bgY96bp+n21Ofpl5JC7kpNTeycnafJvTzjS0vnX7/ETO4QMZQAtjWMJSJJU+MYSKFjnqYorEYk8dL6bfEkoLsE3oxXdP8KA3fOuiDuqgz6H8l26Irm9vPEd7kHbQ0OT3bvBKl/w0dgaijlb/HJNLJtaqgh2WjaV04TDTozdS5toscV6MRyy8TnJev/V4Z9c5WCo/+PH3YVXVW/6Depr/szLEfjQfhrDKxuxlp4LDMoJilDLcNE6n6hqNaQb3HXZWh2Ixht0EY2xRa22YZwWGNILGUR8VeZoKGrqFi3XteV11t25aZM5NZmh/J8yAAh5UHvHyzunA18WzBRQddmvfI1FD0ohP5VLS0XUyT9Y/Sbvof0PPyfNk5kZ+OMD3IdXYRTajX/7h+9utO6FDoZWIOy+EWYAwTSYUVvnDk+1xoIfq7ymGV8i6e1sYm0cbTnbTpMyK8IsQTPEgfdj8JVvILkurystBFfXegtgsrf3k3j7wEKNmA8qqxpJldOEzUyEnNZUm+e/BfNZ3VYVq1XKyzvg/Gg3M64ayc//DAYTlvg7do4MJhomSEM1ZnM/N63x8P1K7tDgRUv0oo40rLnhBDQgkt5MZhooSYh1PpCQreEegJztk+XAI8d44AHJZz7Ecs2YVX2IxYZ6cS0Jb0v2iCLemqq7kHQz+nrDByuRgSjszI8RQYJlpqgn6aVL+1z3vs/K5g7d1wVpayzls4elh5I7RHAIaJFnAW7H+4ri3qaqj+vQXSIdICAnBYFkC1UiSGiabQfVZnPNgTrPmpKdIgxDYCGBLahtrcgjBMzInnAcp1w5H9ez/cUwdnlRNBhzOhh+WwAfIpHsPEjOnplHJTiae48f4brnst41xIKB0BOCzpTJK9QhgmpmEm2CPMowfjC/y/TZMKrxQhgCGhIobKRE0ME99C6Q8aE1+ia18mw1ll0nrUSAOHpYadMtbSpVfYZFx/SniEblO4+cgY74WddXPuxzaFbNDJnxZDQvltlJOGhThMpPuppI2pmJMRkWkIAfSwhiBx14OCGCYK9hRn4pN0P9XVMgaAdVeLcrY2cFjO8reldBcPE/cRwOsvObD3sq66Ob+wBSYKcZQAhoSO4re3cBcNEwcYEy2Cl67qDlx9KG4vRpTmIAH0sByE71TRig8TOzWWnBCvm7PEcFZOMUS5zhBAD8sZ7o6XquCm010UqrCetin0OA4PCjhGAD0sx9DLUbD0N50KdpBuU6jfN0q/CM5KjjbjpBZwWE7Sl6hsCYeJtJ2KtQnNc15XoDa0w++neSv8FDoBDAkLvQWcUH+JhomPU6TsOnKiO2EeEDiRABwW2sMQAo6tJnK2R+hsUXddTQd2qA8xCx4QAQwJ0QyGJfDmMJEuuhs2kUkvaPh3v1aiX0Ax/+6DszIJqgvFwGG50KhmVmlwmMiZ5Tcd0LGaZzr9/iNm6g5Z7iMAh+U+m6JGIOBaAnBYrjUtKgYC7iMAh+U+m6JGIOBaAnBYrjUtKgYC7iMAh+U+m6JGIOBaAnBYrjUtKgYC7iMAh+U+m6JGIOBaAtjp7lrTomKyE/CFwyVMlNbR3V6yqyqNfuhhZWGKilDksiySIykIpCYgBK8MtU3jYvRzdLXzbakT4WkqAnBYqagM94xrT1S0tn1v2rr2s4ZLgucgkI6AL3zXhRXhaA8d7n6A0r0vXVq8G0oAQ8KhTEZ4wq9J6PqXKlpjq46M8bRsmz376AgZ8BoEWOXGjePEQHEjE8kb6CJCD5DkRgA9rNy4ldG8w62lhxLP+Vpi0xl18XMTg1xuJzCjo8NDvfKv6wNFL1GbofkqBmeVh9HhsPKAR1nP4Zq4vyIce2hKc9uE/EQht9sI+MJtn+l99fUd1KPaRN9op7mtfk7UB0NCc6hP9nj405Xhtk2JhNb4YEPNfnPEQoqKBCrWx94tkvpaLvgMFfWXWWc4LPOs46GR4Q2aR3zZF45+s++1vdFtTU0J88RDkuwEqiKR0mQfX8KSYjFnfJTs+qqoH4aEJlvN6PpzwTaWji/fUdna/lmTxUOcjASMbQqtbbP0o9puzvlyUhHOyiI7wWFZBJbEXiSY/gitJv5wasum91hXDCQ7SaCqJfKRynD7Y4LxH5Ae5U7qUghlY0houZXFlZrmraoIxdYmBopXP7To2l7Li0QBlhO4fNOmd3iPeVfpjFXT6h9WiS0n/kYB6GHZA7qEcbHMW9y/mxzXV7ANwh7oVpQyo7GjmLYpNHiPeWibAquhXzgrK0APIxMOaxgwFj1+Jzmue2gbxM8rW6MTLSoDYi0i4FvX5usdf/AZ8lF30O8Yi4qB2DQEMCRMA8fCV5+g467bK1qjd3kFu3lrsHafhWVBdJ4EKta3vZ8lWDPTeWWeopA9TwKu6WHRXILRmHbnycPO7MZQojrB2UuVrbGFxlDDzsJR1sgEJkciY32tbWtZkj9LocdUdVa7hSYqRq6tGilc47B66mrj+0bp/8E5q6fbOg6qgX9Qy1MFE2t7xx96tjIcU/VDoRDukVVtbGzUfOHY9cV92ou0n2oh5SgaOZd0KV6nxYCg8ZnoXjCnWzrtclTIVUPCHX7/AHEI0Yn4e7hI3kJ/z6FfRZyyOE8I1kmT8t2aJ9nQucC/K0ebIlseBGg/1Se2Mx7mQkxUdDpdp32AEZ7Ql3cu9P8jDxRSZnWVw/oX4e7A9X+nv+dODUU3kbdqoYb3OSnpp1KKC5+ua5+n/VvhY6OStzzs96vUW0xVIyWe0emEcvqg30Zzi19RQuFUSgr2CPPowa4FfssD36Yq3o5nrnRY/wLXE6x9hrYQTPaF2r9Ah5RpZYedYwdUE8ogu4iG4qPaNeS4bio7c8zmLTNnJk2QCxEnEZjR3Dy613vKjTSN8A16VaoooN8JnS/sDlY/QHNtrr6+VJHhUh7NiAzYXV/zY8H7LqTdyEtopvufeUizO+vbyXFFe189uH1qKPIpuwt3dXl0nKYi1HZlr2fM87Tvc6Wizuqw0aapbU8w2rjbnZXRHgtu01vFhs1n8MTAKjL0bNXqTzrfm0xoix+68fo9djoT2n6xgsprtLjMpnhdrVGO5T80VXCRxkWImr+qZz2NXtRdzOtdFp8/+6+WA5OoAFcPCVNxPm7gatq4uZEabIhW6JTpudD937O83uQXaDVxdWni0NotDQ19qeqIZ6kJfHH9d0/rTw7QYoz4OtleydEFrVr+nOvJus56/69T19LdT5U0mhkm6aqr3dEVqP40rczNInmvmCHTJhmjhRBNvZ5Td1WGYjNwzGdk6pMaG72+UOyG/uQx49bPeZRDxXZPbVRcZbTZQnVWhqVVNNzILTTTFMb8VrD2vrLk4Quoj21cC3Ik06wSpDtbcNFBx3x+VhVu/5AE+kipAl2qOLnstPLfkKnXkYLjpFQyvVJHjLZptNF43ZyOQpinSoej4IaEqWAcH1qtpKXtzbTG8m1Kc3WqdJI++4wu9F/TBHJUS4hlbtx7kwt3XzjyPho+3U5z69NzyS9Jnru1ZGJpZ8PcP0uij+NqwGGdYILuQO1e+u815Lg2kONqpb8vddxCmSmg0TevXy/iV9FNAiv2jRIbj2+izSy3i1JN2rDhlNJE0U208ncjVUvR4078V9R7DlJ7fMJFpjGlKoU9JBwGodFQLtm/9+M0MXstdcf/MkwyGR+/zVhIOP2o9rQv3H65jApapZNxnIb2rF1Tmih+kRgYe6qUc1ZGW6Mvymsu2b/nE3BWqVsKelipubCmpiY6T82+T9/Y95cOlCyha2GMM2WqXH37AS70B+k83FY9wW6koBgvD1NNVzyuCscu3S4E9YjFxxSt0FHqEd7eV9R/27b58//ZpWgl7FAbDmsEykYDoiTfpGuO27nmWUPzIspEQqHzcNM8HjaVVshaivr5qq1Lqg+PUF2lXk9piZypadq3dSGuU0rxtyrbwTx8cfyGmj8pXAfbVIfDyhB1T/3cP1LSmXQ4+dPU26JNh+zDGWZ1OlkxrZAtSYwS19E1Nks/un/P94/3Hp3WK+fyfeFwicZGBalXsoyGUafkLMjZjDvpZpG6rkDt486qoVbpmMPK0l7xYM1jZWeOvYTmGmro/NnfsszuZPIzaJPsd7aPL/9lRShymZOK5Fy2EZ0m1DaNi9HP0Z+rlXRW1GaMtmO0ITir7FsCeljZM2PHDyK3+8J3b+F63zI64DIu6x8AAAYoSURBVBQkMarcmXQpbfJ+glYTv+/VPEu3LqhWYlGBrgy6kIejLYJzVRcT6Ooj0SK00lXxwNWHcmh2yEIE4LDyaAbdbzS8xVOaY20ej7idRH0hD3E2Z+XXJHT9S7SyturIGE/Lttmzj9qsQEbFVW7cOE4MFDcykbyBVv88GWWSL9EDySRf+GBDrasXP+zAjiGhCZSNVTg6uDtdZ3wyiXvWBJF2iSijb/1bSw8lnvO1xKbLdMxnRkeHh3qBX9cHiozjNHUEREVn9azRJoy24faVWrsaLByWiaR76mp+emT/3g/T6tx8ml95zUTRVos6h+4Lu5+O+Tw0pbltgtWFjSTfF277TO+rr++gHtUmuk7ktJHSy/besD1FKpxntAWjTcimn8r6FNz1MnYZ682hDBM0lFGqd5CkVcVNiYTWSL2C/QYvu66XoeX9zSKpr1Vp68hJ7SlBTnYDLzrW1DVv3gG72lohlQOHZbG1K1uiHxAahYhibKrFRZkqfrCHyNk3+17bGy0dX76MhDeaWsBQYcZQ+lz6VWVz7ltrIDju4h9qU9OfwGGZjjS1wKmt0QoafxuO6/zUKSR9KthvyXEZmxqrJNXQabWMMFr1bopM4zTQdOXDYaWjY/K7iZFI0Rn92nyhsxXkBMaaLB7i7CVghNEq6IPm9uJ+ozQ4LAeo056it6sXhswBUHIW6eowWnIi/7dWcFgOWmjwbnHVwpA5yMvxoo+H0Yq7OIyW44xHUAAOawRAlr+mMyYKhiGzHItkBRRMGC3JuA9RB/uwhiCx+YHaYchshmV7cQUXRst2wlkWiB5WlsCsTq5yGDKr2dgon3Z1FGYYLRsZ51QUHFZO2KzPRGHIJhq3h6oUhsx6KtaXUOhhtKwnnF8JcFj58bM2tzG/1RqbSfcmraGCzra2sIKX/gptU1gUD9RuKfTINDK3BMxhyWwdtcOQyUz2RN0QRksVS5Ge6GEpZCyK5lOuYBgymQkjjJbM1kmhGxxWCiiyPyLH9THFwpBJhhRhtCQzSMbqYEiYMSp5EiochsxRiLT0hzBajlog/8LRw8qfoaMSBgOHqheGzG5mg2G0jhwPo2V34SjPPAJwWOaxdFQShSF7j2phyGwChjBaNoG2oxg4LDso21iGgmHIrKKDMFpWkXVQLhyWg/CtKtq4D/3IXw5+jeZsbqV14HdYVY6Uco0wWozdVHrW2O8cj24kpZpQKjcCcFi5cVMiF4UhG6NgGLJc2b4RRouXrjoezShXOcgnMQE4LImNY5ZqFIbsXPXCkGVV++NhtGoQRisrbOolhsNSz2Y5azy1NfafGhMhEvDBnIXIldEIoxVEZBq5jGKlNtiHZSVdyWQrHIbsLSQRRkuyhmWjOuhh2QhbpqIUDUOGMFoyNSIHdIHDcgC6TEUqE4YMYbRkajaO6QKH5Rh6uQqWOAwZwmjJ1VQc1QYOy1H8chUuWRgyhNGSq3lIoQ0clhRmkEsJh8OQIYyWXM1BKm3gsKQyh1zK2B6GDGG05GoAEmoDhyWhUaRSyZ4wZAijJZXR5VUG+7DktY0cmlkbhgxhtOSwsjJaoIeljKnkUNSkMGQIoyWHOZXTAg5LOZPJoXCuYcgQRksO+6mqBRyWqpaTQe/swpAhjJYMNlNcB8xhKW5AR9XPLAwZwmg5aiR3FY4elrvs6WhtUoQhQxgtRy2CwkEABEYkYIQhM35HTIgEIAACIAACIAACIAACIAACIAACIAACIAACIAACIAACIAACIAACIAACIAACIAACIAACIAACIAACIAACIAACIAACIAACIAACIAACIAACIAACIAACIAACIAACIAACIAACIAACIAACIAACIAACIAACIAACIAACIAACIAACIAACIAACIAACIAACIAACIAACIAACIAACIAACIAACIAACIAACIAACIAACIAACIAACIAACIAACIAACIAACIAACIAACIAACIAACIAACIAACIAACIAACIAACIAACIAACIAACIAACIAACIAACIAACIAACIAACIAACIAACIAACIAACIAACIAACIAACIAACIAACIAACIAACIAACIAACIAACIAACIAACIAACIAACIAACIAACChL4fwV2ljre7jg8AAAAAElFTkSuQmCC;" parent="1" vertex="1">
          <mxGeometry x="599.5" y="168" width="55.25" height="55.25" as="geometry" />
        </mxCell>
      </root>
    </mxGraphModel>
  </diagram>
</mxfile>
